<?xml version="1.0" standalone="no"?>
<!DOCTYPE svg PUBLIC "-//W3C//DTD SVG 1.1//EN" "http://www.w3.org/Graphics/SVG/1.1/DTD/svg11.dtd" >
<svg xmlns="http://www.w3.org/2000/svg">
<metadata></metadata>
<defs>
<font id="RefreshMonoBold" horiz-adv-x="1228" >
<font-face units-per-em="2048" ascent="1638" descent="-410" />
<missing-glyph horiz-adv-x="500" />
<glyph horiz-adv-x="0" />
<glyph horiz-adv-x="2048" />
<glyph unicode=" " />
<glyph unicode="!" d="M506 25v213h215v-213h-215zM539 469v928q0 35 21.5 58.5t55.5 23.5q32 0 56 -24t24 -58v-928q0 -34 -24 -58t-56 -24q-34 0 -55.5 23.5t-21.5 58.5z" />
<glyph unicode="&#x22;" d="M379 1153v246q0 41 25 65.5t65 24.5q39 0 63.5 -24.5t24.5 -65.5v-246q0 -39 -24.5 -63.5t-63.5 -24.5q-40 0 -65 24t-25 64zM670 1153v246q0 41 24.5 65.5t63.5 24.5q40 0 65 -24.5t25 -65.5v-246q0 -40 -25 -64t-65 -24q-39 0 -63.5 24.5t-24.5 63.5z" />
<glyph unicode="#" d="M113 573q0 31 20.5 52.5t50.5 21.5h148l59 242h-115q-32 0 -51.5 20.5t-19.5 53.5q0 30 20 52.5t51 22.5h148l72 299q7 28 36.5 44t55.5 10q32 -9 49 -35.5t10 -57.5l-63 -260h198l70 297q7 32 34.5 48t61.5 8q37 -9 50.5 -34t5.5 -59l-62 -260h98q29 0 51.5 -23 t22.5 -52q0 -32 -22 -53t-52 -21h-133l-55 -242h96q30 0 52 -22t22 -52q0 -31 -22 -51t-52 -20h-135l-84 -359q-7 -30 -37 -45.5t-57 -7.5t-45.5 36t-11.5 58l77 318h-200l-82 -359q-6 -29 -36.5 -45t-60.5 -8q-29 7 -45 35.5t-10 58.5l74 318h-111q-31 0 -51 19.5t-20 51.5 zM494 647h194l60 242h-201z" />
<glyph unicode="$" d="M197 383q0 32 22 55t55 23q31 0 54.5 -23.5t23.5 -54.5q0 -86 47.5 -139t130.5 -74v555l-145 84q-82 46 -128 132t-46 183q0 138 86 228.5t233 109.5v49q0 30 20 54t52 24q34 0 56 -24t22 -54v-49q142 -27 237 -126.5t95 -231.5q0 -30 -24 -54t-54 -24q-31 0 -55.5 23.5 t-24.5 54.5q0 84 -46.5 133t-127.5 63v-483l154 -88q107 -61 152.5 -148.5t45.5 -211.5q0 -154 -96.5 -251t-255.5 -116v-45q0 -32 -21 -55t-55 -23q-33 0 -53.5 23t-20.5 55v45q-156 21 -244.5 125t-88.5 256zM369 1120q0 -117 102 -180l59 -37v397q-74 -14 -117.5 -59 t-43.5 -121zM680 164q86 21 140 75t54 128q0 148 -120 227l-74 49v-479z" />
<glyph unicode="%" d="M35 948v197q0 116 69.5 185t186.5 69q121 0 190.5 -68.5t69.5 -185.5v-197q0 -116 -70 -185t-190 -69q-118 0 -187 68.5t-69 185.5zM182 948q0 -42 25 -73t84 -31q110 0 110 104l2 197q0 102 -112 102q-51 0 -80 -25.5t-29 -76.5v-197zM342 70l391 1355q9 31 36.5 46.5 t59.5 5.5q27 -9 40 -35t5 -56l-387 -1355q-10 -35 -38 -48.5t-58 -5.5q-25 6 -41.5 35t-7.5 58zM668 330v192q0 117 70 186.5t190 69.5q118 0 187 -69t69 -187v-192q0 -118 -69.5 -187t-186.5 -69q-121 0 -190.5 68.5t-69.5 187.5zM815 330q0 -47 25.5 -79t87.5 -32 q50 0 79 29.5t29 81.5v192q0 44 -24.5 75.5t-83.5 31.5q-54 0 -83.5 -28t-29.5 -79v-192z" />
<glyph unicode="&#x26;" d="M115 416q0 263 186 362l39 21l-45 37q-135 112 -135 274q0 92 36.5 163t95 110.5t122 59t127.5 19.5q171 0 286 -100.5t115 -263.5q0 -31 -23 -54.5t-55 -23.5q-29 0 -52.5 23.5t-23.5 54.5q-1 94 -70.5 148t-176.5 54q-33 0 -62 -4.5t-59.5 -18t-52.5 -34t-36 -56 t-14 -81.5q0 -57 24 -93.5t75 -80.5l671 -576q22 -19 25 -52.5t-16 -53.5q-22 -23 -55.5 -26t-53.5 16l-74 65q-16 -81 -54.5 -141t-92.5 -93.5t-114 -49t-128 -15.5q-62 0 -119 13t-110.5 43.5t-93 76.5t-63 117t-23.5 160zM272 412q0 -70 22.5 -121.5t61 -78t80 -38.5 t88.5 -12q71 0 125.5 26t89 85.5t35.5 146.5l-311 272l-66 -41q-125 -78 -125 -239z" />
<glyph unicode="'" d="M526 1153v246q0 41 24 65.5t64 24.5t64 -24.5t24 -65.5v-246q0 -40 -24 -64t-64 -24t-64 24t-24 64z" />
<glyph unicode="(" d="M473 201v1054q0 93 20 154t78 119l54 53q25 25 57.5 23.5t54.5 -29.5q19 -24 18 -56t-24 -55q-51 -54 -74.5 -102t-23.5 -117v-1032q0 -73 21.5 -121t74.5 -100q24 -24 22 -59t-26 -56q-24 -20 -53 -18.5t-51 22.5l-52 47q-56 63 -76 122t-20 151z" />
<glyph unicode=")" d="M482 1519q-1 32 18 56q22 28 54.5 29.5t57.5 -23.5l54 -53q58 -58 78 -119t20 -154v-1054q0 -92 -20 -151t-76 -122l-52 -47q-22 -21 -51 -22.5t-53 18.5q-24 21 -26 56t22 59q53 52 74.5 100t21.5 121v1032q0 69 -23.5 117t-74.5 102q-23 23 -24 55z" />
<glyph unicode="*" d="M289 979l192 104l-192 103l76 127l180 -115l-2 219h143l-6 -219l186 115l74 -127l-192 -103l194 -106l-74 -123l-188 111l6 -217h-143l2 219l-180 -115z" />
<glyph unicode="+" d="M160 596q0 33 21.5 54.5t54.5 21.5h301v289q0 34 20 55.5t53 21.5t53.5 -21.5t20.5 -55.5v-289h307q33 0 54.5 -21.5t21.5 -54.5t-21.5 -54.5t-54.5 -21.5h-307v-313q0 -34 -20.5 -56t-53.5 -22t-53 22t-20 56v313h-301q-33 0 -54.5 21.5t-21.5 54.5z" />
<glyph unicode="," d="M414 -217l172 463h241l-288 -463h-125z" />
<glyph unicode="-" d="M297 563q0 34 22 55t56 21h477q34 0 56 -21t22 -55t-22 -55t-56 -21h-477q-34 0 -56 21t-22 55z" />
<glyph unicode="." d="M512 27v219h203v-219h-203z" />
<glyph unicode="/" d="M287 0l501 1530q11 31 41.5 46t61.5 3q32 -12 46 -39.5t5 -58.5l-500 -1528q-10 -32 -42 -46.5t-60 -4.5q-31 11 -47 37.5t-6 60.5z" />
<glyph unicode="0" d="M229 391v690q0 43 8.5 88t35 99.5t67 96t112.5 69.5t164 28q90 0 160.5 -28t111 -69.5t66.5 -95.5t34.5 -100t8.5 -90v-690q0 -45 -9 -91t-35.5 -100t-67.5 -95.5t-113 -69t-164 -27.5q-90 0 -160.5 28t-110.5 69t-65.5 95.5t-34 101t-8.5 91.5zM387 393q0 -56 17 -99 t41.5 -66.5t57.5 -38t59.5 -19t53.5 -4.5t53 4.5t59 19t57 38t40.5 66.5t16.5 99l2 682q0 56 -16.5 98.5t-41.5 67t-57.5 39.5t-59.5 20t-53 5t-53 -5t-60 -20t-57.5 -39.5t-41.5 -67t-17 -98.5v-682z" />
<glyph unicode="1" d="M209 102q0 34 22.5 58t59.5 24h246v1106h-170q-37 0 -59.5 21t-22.5 55q0 33 23 57.5t59 24.5h321v-1264h252q32 0 56 -25t24 -57q0 -34 -23 -54.5t-57 -20.5h-653q-36 0 -57 20t-21 55z" />
<glyph unicode="2" d="M193 27v272q0 45 10 86.5t24 73t41.5 64.5t50 55.5t62 51t66 45.5t73.5 46q64 39 100.5 63t86 61.5t75.5 67t45 68.5t19 78q0 119 -66 183.5t-184 64.5q-29 0 -64.5 -11t-75 -33.5t-69.5 -65t-39 -97.5q-5 -31 -27 -52.5t-53 -21.5q-35 0 -55 22t-20 56q0 43 12.5 88.5 t43 94.5t75 87.5t115.5 63t157 24.5q181 0 294.5 -111t113.5 -286q0 -40 -7.5 -77.5t-25.5 -71t-35.5 -61t-49.5 -57.5t-54 -50t-63 -48t-63.5 -42t-66.5 -42q-45 -28 -62 -38.5t-57 -37.5t-57 -42t-44.5 -41.5t-39 -47.5t-21.5 -49t-10 -57v-119h610q33 0 55.5 -24.5 t22.5 -57.5q0 -35 -22 -55t-56 -20h-765z" />
<glyph unicode="3" d="M209 397q0 32 22 56t56 24q31 0 55.5 -24.5t24.5 -55.5q0 -57 18.5 -101t45 -68.5t61.5 -40t63 -20.5t55 -5q26 0 55.5 5t65 21t63.5 41t47 68.5t19 99.5v101q0 55 -19.5 97.5t-47 65.5t-64 38t-65 19.5t-54.5 4.5h-108v131l289 436h-498q-33 0 -55.5 23.5t-22.5 54.5 q0 33 22.5 57.5t55.5 24.5h690v-139l-293 -441q80 -13 141.5 -46t95.5 -72.5t56 -88.5t28.5 -87t6.5 -74v-105q0 -44 -10.5 -91.5t-39 -103t-71.5 -98.5t-115.5 -71.5t-163.5 -28.5q-93 0 -167 27.5t-118 69.5t-73.5 97t-40 103.5t-10.5 95.5z" />
<glyph unicode="4" d="M223 424v158l312 835q11 28 43 43.5t59 5.5q30 -12 42 -41.5t1 -58.5l-291 -786h457v481q0 34 21.5 56t56.5 22t56 -22t21 -56l3 -991q0 -35 -22 -57.5t-56 -22.5q-35 0 -56.5 22.5t-21.5 57.5v354h-625z" />
<glyph unicode="5" d="M199 395q0 32 21.5 56t55.5 24q33 0 56.5 -24.5t23.5 -55.5q0 -106 70.5 -168.5t185.5 -62.5q103 0 181.5 63.5t78.5 173.5v95q0 99 -68 170t-188 71h-358v158l37 551h616q31 0 54.5 -25t23.5 -57q0 -33 -23 -54.5t-55 -21.5h-469l-26 -391h205q108 0 200.5 -48.5 t149.5 -140.5t57 -208v-97q0 -170 -122 -283.5t-294 -113.5q-176 0 -294.5 107t-118.5 282z" />
<glyph unicode="6" d="M211 387v690q0 42 11 89t40.5 101t73.5 96.5t118.5 70.5t166.5 28q85 0 153 -26t108.5 -65t67.5 -89.5t37 -95.5t10 -86q0 -34 -23 -56t-56 -22q-31 0 -53 22t-25 54q-4 55 -26.5 97t-56 65t-70 34t-75.5 11q-25 0 -54.5 -6.5t-63.5 -23.5t-61.5 -42t-45.5 -66t-18 -92 v-231q103 88 252 88q90 0 162.5 -28t115 -69.5t70.5 -95.5t38.5 -101t10.5 -91v-162q0 -42 -10.5 -88t-39.5 -99t-72.5 -95t-117.5 -69.5t-166 -27.5q-90 0 -162.5 27.5t-116 69.5t-72 95.5t-39.5 100t-11 88.5zM369 391q0 -56 18.5 -98.5t45 -66t61.5 -38.5t63 -19.5 t55 -4.5t55 4.5t63.5 19t62.5 38t45.5 66.5t19.5 99l2 154q1 55 -18 97.5t-46.5 66.5t-63.5 39.5t-64.5 20.5t-55.5 5q-35 0 -71.5 -9.5t-77.5 -32.5t-67.5 -72.5t-26.5 -118.5v-150z" />
<glyph unicode="7" d="M176 1364q0 37 22 60.5t56 23.5h799v-131l-467 -1264q-10 -29 -42 -43.5t-61 -3.5q-33 12 -46 39.5t-1 60.5l443 1182h-625q-34 0 -56 21t-22 55z" />
<glyph unicode="8" d="M197 406v32q0 214 155 316q-139 95 -139 303v24q0 41 10.5 87t39 100t71.5 96t116.5 70t165.5 28q91 0 163.5 -27.5t115.5 -69t71.5 -95t39 -100.5t10.5 -91v-24q0 -66 -38.5 -152.5t-113.5 -144.5q85 -65 125.5 -154.5t40.5 -167.5v-33q0 -44 -11 -92.5t-41 -104.5 t-75.5 -99t-122 -72t-172.5 -29q-94 0 -168.5 29t-118.5 73t-73.5 100t-40 105t-10.5 93zM356 410q0 -59 20 -104.5t48.5 -70.5t66.5 -40.5t68 -20t59 -4.5t58.5 4.5t67 20t66 40.5t48 70.5t19.5 104.5v22q0 120 -74.5 180t-194.5 60q-109 0 -180.5 -64.5t-71.5 -175.5v-22z M371 1059q0 -108 69 -166.5t178 -58.5q106 0 175 59.5t69 165.5v16q0 55 -18.5 98t-45.5 67.5t-62.5 39.5t-64 20t-55.5 5t-55 -4.5t-63.5 -20t-62.5 -39.5t-45.5 -67t-18.5 -99v-16z" />
<glyph unicode="9" d="M211 924v159q0 42 10.5 88.5t39.5 100t72 95t117 69.5t166 28q76 0 139.5 -19t106 -51.5t74 -72t49 -84t25.5 -83t8 -73.5v-690q0 -42 -11 -88.5t-40.5 -100t-73.5 -96t-118.5 -70.5t-166.5 -28q-90 0 -160 26t-110 64.5t-65 90t-33.5 94.5t-8.5 86q0 36 23.5 58t56.5 22 q32 0 54 -22.5t24 -55.5q1 -49 18 -87t41 -59.5t56 -35.5t58.5 -18.5t53.5 -4.5q25 0 54.5 6t64 23t61.5 41.5t45.5 66t18.5 92.5v234q-39 -43 -111.5 -67.5t-140.5 -24.5q-91 0 -163 28t-114.5 70t-70.5 96t-38.5 101.5t-10.5 91.5zM369 926q0 -46 12.5 -84t34 -62 t47.5 -41.5t55 -26t53 -12.5t45 -4q26 0 54.5 5t63.5 21t62 40.5t45.5 68t18.5 99.5v147q0 56 -18.5 99t-45 67t-62 39.5t-63.5 20t-55 4.5t-55 -4.5t-63 -19.5t-62 -39t-45.5 -67t-19.5 -100z" />
<glyph unicode=":" d="M514 25v219h201v-219h-201zM514 545v221h201v-221h-201z" />
<glyph unicode=";" d="M408 -178l176 420h254l-277 -420h-153zM588 545v221h203v-221h-203z" />
<glyph unicode="&#x3c;" d="M281 569l520 518q25 23 57 24.5t60 -24.5q22 -22 21 -56.5t-24 -57.5l-399 -404l406 -409q23 -25 23 -59t-23 -56q-27 -24 -59 -23t-56 23z" />
<glyph unicode="=" d="M201 487q0 30 21 53t54 23h674q31 0 54.5 -23.5t23.5 -52.5q0 -33 -23 -55t-55 -22h-674q-34 0 -54.5 21.5t-20.5 55.5zM201 776q0 32 21 55t54 23h674q31 0 54.5 -23.5t23.5 -54.5q0 -32 -23.5 -54t-54.5 -22h-674q-33 0 -54 21.5t-21 54.5z" />
<glyph unicode="&#x3e;" d="M288 101q0 34 23 59l406 409l-400 404q-23 23 -23.5 57.5t21.5 56.5q28 26 60 24.5t57 -24.5l520 -518l-526 -524q-24 -22 -56 -23t-59 23q-23 22 -23 56z" />
<glyph unicode="?" d="M213 1104q5 150 121 254t280 104q169 0 286.5 -111.5t117.5 -285.5q0 -59 -14.5 -110.5t-33.5 -84.5t-49 -63.5t-50.5 -45.5t-47.5 -32q-43 -26 -69.5 -46t-53 -49t-39 -66.5t-12.5 -84.5v-69q0 -34 -24 -56t-56 -22q-35 0 -56 21.5t-21 56.5v63q0 234 194 346 q90 52 133 101t43 135q0 116 -70 182t-178 66q-95 0 -169.5 -59.5t-75.5 -143.5q-1 -33 -25 -55.5t-53 -22.5q-34 0 -56.5 21.5t-21.5 56.5zM485 45v172h177v-172h-177z" />
<glyph unicode="@" d="M211 150v780q0 41 10.5 86t39.5 98.5t72 95t117 69.5t166 28q90 0 162.5 -28t115.5 -70t72 -95t39.5 -99t10.5 -87v-858q0 -33 -23.5 -55.5t-54.5 -22.5q-32 0 -54 22t-22 56v49q-48 -56 -143 -56q-122 2 -203.5 71t-81.5 200v325q0 131 83 202t206 71q37 0 78 -15.5 t61 -39.5v47q0 52 -18.5 93.5t-46 65.5t-62.5 40t-64 22t-55 6q-27 0 -55.5 -4.5t-64 -19.5t-62.5 -38.5t-46 -66.5t-19 -98v-772q0 -64 23 -111t59.5 -70t71 -33.5t69.5 -11.5q36 0 59 -24t21 -60q0 -33 -23 -52.5t-59 -18.5q-87 3 -156 32.5t-109.5 70.5t-67.5 93 t-36.5 97t-9.5 86zM586 340q0 -63 39 -96t94 -33q59 0 101 31t42 96l2 319q0 63 -43.5 94t-101.5 31q-55 0 -94 -33t-39 -98v-311z" />
<glyph unicode="A" d="M137 94l318 1354h315l322 -1354q2 -10 2 -20q0 -23 -14 -42q-20 -26 -48 -33q-9 -2 -17 -2q-21 1 -41 11q-30 16 -38 51l-88 363h-467l-88 -363q-9 -37 -35 -52q-18 -11 -39 -11q-9 0 -18 2q-37 7 -55 34q-12 19 -12 41q0 10 3 21zM416 580h395l-162 712h-69z" />
<glyph unicode="B" d="M205 25v1423h424q92 0 162 -27t108.5 -67t62.5 -93.5t31.5 -97.5t7.5 -88v-22q0 -32 -6 -69t-21 -81.5t-47 -83t-77 -57.5q49 -23 85.5 -65t54.5 -88.5t26 -86t8 -71.5v-50q0 -43 -9 -88t-35 -98t-67 -94t-112 -68.5t-162 -27.5h-434zM362 182h277q35 0 68.5 8.5t72 30.5 t62.5 70t24 117v41q0 70 -21 118t-56.5 70t-68.5 30.5t-71 8.5h-287v-494zM362 834h279q203 0 203 223v18q0 55 -15.5 96.5t-38 63.5t-54 35.5t-56 17.5t-51.5 4h-267v-458z" />
<glyph unicode="C" d="M211 391v690q0 41 10.5 87t39.5 100t72 96t117 70t166 28q88 0 159.5 -26.5t114.5 -67t72 -93t40.5 -100t11.5 -92.5q0 -33 -23 -54t-55 -21q-33 0 -54.5 21t-21.5 54q-1 54 -19.5 96t-45.5 65.5t-62 38t-63 19.5t-54 5q-35 0 -71.5 -9t-79 -31.5t-69.5 -71.5t-27 -118 v-686q0 -69 27 -117.5t69.5 -70.5t79 -30.5t71.5 -8.5q27 0 55 4.5t63.5 19.5t62 39t45 67t18.5 99q0 31 22 55.5t54 24.5t56 -24.5t24 -55.5q0 -44 -11 -91.5t-40 -101.5t-73 -96t-117.5 -70t-166.5 -28q-90 0 -162.5 28t-115 69.5t-70.5 95.5t-38.5 101t-10.5 91z" />
<glyph unicode="D" d="M209 25v1425h424q91 0 162 -28t112 -69t67 -95t35 -99t9 -88v-663q0 -36 -6.5 -74t-21.5 -83t-43.5 -84t-68 -71.5t-101 -51.5t-136.5 -19h-432zM367 182h270q27 0 53.5 4.5t58 19.5t54.5 39t39 66.5t16 98.5l2 655q0 68 -24 116t-62 70.5t-72.5 31.5t-68.5 9h-266v-1110 z" />
<glyph unicode="E" d="M211 25v1423h727q31 0 54.5 -24.5t23.5 -55.5q0 -29 -23.5 -52.5t-54.5 -23.5h-569v-438h524q31 0 54.5 -23.5t23.5 -54.5q0 -28 -24 -53t-54 -25h-522v-518h567q31 0 54.5 -24.5t23.5 -55.5q0 -30 -23.5 -52.5t-54.5 -22.5h-727z" />
<glyph unicode="F" d="M211 25v1423h727q31 0 54.5 -24.5t23.5 -55.5q0 -29 -23.5 -52.5t-54.5 -23.5h-569v-442h524q31 0 54.5 -23.5t23.5 -54.5q0 -28 -24 -53t-54 -25h-522v-669h-160z" />
<glyph unicode="G" d="M209 391v690q0 41 10.5 87t39.5 100t72 96t117 70t166 28q90 0 162.5 -28t115 -70t71 -95.5t39 -100.5t10.5 -89q0 -31 -23.5 -54.5t-54.5 -23.5q-32 0 -54 23.5t-22 54.5q0 56 -18.5 98.5t-45 66.5t-62 39t-63.5 19.5t-55 4.5q-35 0 -71.5 -9t-79 -31.5t-69.5 -71.5 t-27 -118v-686q0 -69 27 -117.5t69.5 -70.5t79 -30.5t71.5 -8.5q27 0 55 4.5t64 19.5t63 38.5t45.5 66.5t18.5 98v264h-250q-31 0 -53 24t-22 56q0 31 22 53.5t53 22.5h408v-422q0 -43 -11 -90t-41 -100.5t-74.5 -95.5t-119 -69.5t-166.5 -27.5q-90 0 -162.5 28t-115 69.5 t-70.5 95.5t-38.5 101t-10.5 91z" />
<glyph unicode="H" d="M199 70v1331q0 36 20 58t55 22q34 0 57 -22.5t23 -57.5v-551h520v551q0 35 21.5 57.5t56.5 22.5q34 0 56 -22.5t22 -57.5v-1331q0 -35 -22 -57.5t-56 -22.5q-35 0 -56.5 22.5t-21.5 57.5v624h-520v-624q0 -35 -23 -57.5t-57 -22.5q-35 0 -55 22t-20 58z" />
<glyph unicode="I" d="M252 100q0 33 21.5 57.5t54.5 24.5h209v1108h-209q-34 0 -55 21t-21 55q0 33 21.5 57.5t54.5 24.5h569q31 0 54.5 -25t23.5 -57q0 -33 -23 -54.5t-55 -21.5h-209v-1108h209q31 0 54.5 -25t23.5 -57q0 -33 -23 -54t-55 -21h-569q-34 0 -55 20.5t-21 54.5z" />
<glyph unicode="J" d="M250 389q0 34 21.5 57t54.5 23q34 0 57 -23t23 -57q0 -67 20 -114t53.5 -69.5t66 -32t68.5 -9.5q37 0 70.5 9t67 30.5t53.5 65.5t20 106v915h-385q-34 0 -54.5 21t-20.5 55q0 33 21 57.5t54 24.5h539v-1061q0 -180 -97 -280.5t-270 -100.5q-170 0 -266 102t-96 281z" />
<glyph unicode="K" d="M217 70v1331q0 35 21.5 57.5t56.5 22.5q32 0 56 -23t24 -57v-621l442 650q17 26 53.5 31t59.5 -13q23 -16 29 -46.5t-13 -60.5l-356 -528l420 -702q12 -20 12 -41q0 -10 -2 -20q-8 -32 -39 -50q-17 -10 -37 -10q-11 0 -22 3q-32 9 -52 40l-378 635l-117 -170v-428 q0 -34 -24 -57t-56 -23q-35 0 -56.5 22.5t-21.5 57.5z" />
<glyph unicode="L" d="M211 27v1374q0 35 21.5 57.5t56.5 22.5q32 0 56 -23t24 -57v-1217h567q32 0 56 -25t24 -57q0 -34 -23 -54.5t-57 -20.5h-725z" />
<glyph unicode="M" d="M127 70v1378h235l252 -719l252 719h236v-1378q0 -33 -24.5 -57.5t-57.5 -24.5q-31 0 -54.5 25t-23.5 57v1114l-258 -723h-139l-258 723v-1114q0 -32 -23.5 -57t-54.5 -25q-33 0 -57.5 24.5t-24.5 57.5z" />
<glyph unicode="N" d="M223 68v1380h236l387 -1174v1127q0 35 23.5 57.5t56.5 22.5t56.5 -22.5t23.5 -57.5v-1378h-244l-379 1151v-1106q0 -32 -24 -57t-56 -25t-56 25t-24 57z" />
<glyph unicode="O" d="M209 391v690q0 41 10.5 87t39.5 100t72 96t117 70t166 28q90 0 163 -28t116.5 -70.5t73 -96t40.5 -100.5t11 -88v-690q0 -43 -11 -90t-41 -100.5t-74.5 -95.5t-119 -69.5t-166.5 -27.5q-90 0 -162.5 28t-115 69.5t-70.5 95.5t-38.5 101t-10.5 91zM367 391 q0 -69 27 -117.5t69.5 -70.5t79 -30.5t71.5 -8.5t71.5 9t78 31t68 70.5t26.5 116.5l2 686q0 55 -18.5 98t-45.5 67.5t-62.5 39.5t-64 20t-55.5 5q-35 0 -71.5 -9t-79 -31.5t-69.5 -71.5t-27 -118v-686z" />
<glyph unicode="P" d="M209 70v1378h424q91 0 162 -28t112 -69t67 -95t35 -99t9 -88v-104q0 -36 -6.5 -74t-21.5 -83t-43.5 -84t-68 -71.5t-101 -51.5t-136.5 -19h-272v-512q0 -32 -24.5 -57t-55.5 -25q-32 0 -56 25t-24 57zM367 737h270q27 0 53.5 4.5t58.5 19.5t55.5 39t39.5 66.5t16 98.5 v100q0 68 -24 116t-62 70.5t-72.5 31.5t-68.5 9h-266v-555z" />
<glyph unicode="Q" d="M209 391v690q0 41 10.5 87t39.5 100t72 96t117 70t166 28q90 0 163 -28t116.5 -70.5t73 -96t40.5 -100.5t11 -88v-690q0 -38 -8.5 -79t-32 -89t-58.5 -87.5t-94.5 -72t-134.5 -45.5v-159q0 -30 -20.5 -52t-53.5 -22q-34 0 -54.5 21.5t-20.5 52.5v155q-78 12 -138.5 44.5 t-96 73t-58.5 90t-31 91t-8 80.5zM367 393q0 -166 174 -215v217q0 33 20 54.5t53 21.5t53.5 -21.5t20.5 -54.5v-217q170 51 170 215l2 684q0 55 -18.5 98t-45.5 67.5t-62.5 39.5t-64 20t-55.5 5q-35 0 -71.5 -9t-79 -31.5t-69.5 -71.5t-27 -118v-684z" />
<glyph unicode="R" d="M209 70v1378h424q77 0 140 -19t103.5 -51.5t69.5 -71t44 -82.5t21.5 -81t6.5 -72v-67q0 -46 -12 -94.5t-39 -102t-80 -99t-125 -71.5l233 -539q7 -16 7 -32t-8 -30q-15 -28 -42 -39.5t-57.5 -1.5t-44.5 44l-254 582h-227v-551q0 -32 -24.5 -57t-55.5 -25q-32 0 -56 25 t-24 57zM367 776h270q27 0 53.5 4.5t58 20t54.5 39.5t39 67t16 99v59q0 55 -16.5 97.5t-40.5 66t-56 38.5t-59 20t-53 5h-266v-516z" />
<glyph unicode="S" d="M197 383q0 32 22 55t55 23q31 0 54.5 -23.5t23.5 -54.5q0 -106 71 -164.5t181 -58.5q124 0 197 54.5t73 152.5q0 152 -141 237l-334 197q-87 53 -137.5 136.5t-50.5 186.5q0 152 108.5 248t284.5 96q183 0 295.5 -100t112.5 -264q0 -30 -24 -54t-54 -24q-32 0 -56 22 t-24 56q0 92 -71 147.5t-179 55.5q-95 0 -165 -48t-70 -139q0 -66 31.5 -109t91.5 -79l331 -197q209 -124 209 -366q0 -168 -119.5 -269.5t-306.5 -101.5q-185 0 -297 110.5t-112 274.5z" />
<glyph unicode="T" d="M154 1366q0 32 24 57t55 25h762q31 0 55.5 -25t24.5 -57q0 -31 -24.5 -54.5t-55.5 -23.5h-303v-1218q0 -35 -22 -57.5t-56 -22.5q-35 0 -55 22t-20 58v1218h-306q-31 0 -55 23.5t-24 54.5z" />
<glyph unicode="U" d="M209 391v1010q0 35 21.5 57.5t56.5 22.5q32 0 56 -23t24 -57v-1010q0 -69 27 -117.5t69.5 -70.5t79 -30.5t71.5 -8.5q27 0 55 4.5t64 19.5t63 38.5t45.5 66.5t18.5 98v1010q0 35 22 57.5t56 22.5q33 0 56.5 -22.5t23.5 -57.5v-1012q0 -43 -11 -90t-41 -100.5t-74.5 -95.5 t-119 -69.5t-166.5 -27.5q-90 0 -162.5 28t-115 69.5t-70.5 95.5t-38.5 101t-10.5 91z" />
<glyph unicode="V" d="M190 1374q-2 10 -2 19q0 24 13 45q18 29 51 37q9 2 18 2q22 1 42 -13q29 -20 36 -55l262 -1178l269 1180q7 32 36 51q22 14 45 14q7 0 15 -1q33 -5 51 -35q12 -20 12 -44q0 -10 -2 -22l-311 -1349h-219z" />
<glyph unicode="W" d="M86 1386q-1 6 -1 13q0 26 17 49q21 29 54 33q7 1 14 1q28 0 49 -16q27 -20 31 -57l156 -1204l167 819h129l166 -815l158 1204q4 35 36 55q25 16 49 16q6 0 13 -1q33 -7 52 -35q15 -23 15 -48q0 -7 -1 -14l-205 -1366h-213l-135 642l-133 -642h-213z" />
<glyph unicode="X" d="M208 53q-4 13 -5 27q0 20 10 39l307 622l-303 613q-9 18 -9 37q0 13 4 27q10 33 40 46q18 9 38 9q14 0 29 -5q35 -11 50 -43l241 -514l242 514q15 32 49 44q15 5 30 5q18 0 36 -8q32 -16 43 -48q5 -14 5 -27q0 -19 -9 -37l-306 -613l308 -622q9 -19 9 -38q-1 -13 -5 -26 q-10 -32 -41 -49q-17 -8 -34 -8q-13 0 -29 6q-32 12 -48 43l-250 524l-248 -522q-14 -33 -48 -45q-15 -6 -31 -6q-17 0 -33 8q-32 13 -42 47z" />
<glyph unicode="Y" d="M199 1358q-6 16 -6 31.5t6 30.5q12 32 41 44q17 7 33 7q15 0 31 -6q31 -13 44 -46l266 -661l263 661q12 31 45 44q16 7 32 7q15 0 29 -6q34 -15 45 -44q6 -12 6 -26q0 -17 -8 -36l-336 -819v-469q0 -35 -22 -57.5t-56 -22.5q-35 0 -55 22t-20 58v469z" />
<glyph unicode="Z" d="M195 1366q0 34 20.5 58t54.5 24h697v-129l-584 -1135h571q33 0 55.5 -24.5t22.5 -57.5q0 -35 -22 -55t-56 -20h-755v133l581 1130h-510q-35 0 -55 21t-20 55z" />
<glyph unicode="[" d="M438 -139v1706h279q29 0 51.5 -21.5t22.5 -50.5q0 -32 -22 -53t-52 -21h-127v-1413h127q29 0 51.5 -22.5t22.5 -53.5q0 -28 -22.5 -49.5t-51.5 -21.5h-279z" />
<glyph unicode="\" d="M287 1481q-9 31 5 58.5t46 39.5q30 12 60.5 -3t41.5 -46l502 -1530q10 -34 -6 -60.5t-47 -37.5q-28 -10 -60.5 4.5t-42.5 46.5z" />
<glyph unicode="]" d="M438 -68q0 31 22.5 53.5t51.5 22.5h127v1413h-127q-30 0 -52 21t-22 53q0 29 22.5 50.5t51.5 21.5h279v-1706h-279q-29 0 -51.5 21.5t-22.5 49.5z" />
<glyph unicode="^" d="M300 898.5q-8 28.5 5 55.5l242 445h131l244 -447q14 -28 2.5 -56.5t-37.5 -41.5q-24 -13 -57 -3t-46 36l-172 321l-176 -323q-16 -29 -50.5 -35t-55.5 8q-22 12 -30 40.5z" />
<glyph unicode="_" d="M51 -221q0 30 19 48.5t51 18.5h985q32 0 52 -19t20 -48q0 -28 -20.5 -51t-51.5 -23h-985q-31 0 -50.5 23t-19.5 51z" />
<glyph unicode="`" d="M430 1501h195l161 -336h-151z" />
<glyph unicode="a" d="M219 391v332q0 175 107.5 280t287.5 105q59 0 128 -23.5t110 -62.5v22q0 31 22.5 54.5t55.5 23.5q31 0 54.5 -23.5t23.5 -54.5v-974q0 -33 -23.5 -55.5t-54.5 -22.5q-34 0 -56 22t-22 56v20q-40 -39 -110 -62.5t-128 -23.5q-183 0 -289 103.5t-106 283.5zM381 391 q0 -33 5.5 -62.5t21 -60.5t40.5 -52.5t67.5 -35.5t98.5 -14q110 0 173 58.5t63 166.5v332q0 41 -10.5 78t-35.5 71.5t-73.5 55t-116.5 20.5q-110 0 -171.5 -59t-61.5 -166v-332z" />
<glyph unicode="b" d="M223 72v1325q0 35 21 57.5t55 22.5q33 0 56.5 -22.5t23.5 -57.5l2 -385q36 45 103.5 70.5t129.5 25.5q182 0 287 -103.5t105 -281.5v-332q0 -177 -106 -282t-286 -105q-61 0 -127 24t-106 70v-26q0 -32 -24 -57t-56 -25q-33 0 -55.5 24.5t-22.5 57.5zM381 391 q0 -42 10.5 -78.5t34.5 -71.5t72 -55t116 -20q109 0 170.5 59t61.5 166v332q0 42 -10 78t-34 71t-72 55.5t-116 20.5q-110 0 -171.5 -59t-61.5 -166v-332z" />
<glyph unicode="c" d="M221 391v332q0 175 106.5 280t286.5 105q173 0 280.5 -97.5t111.5 -260.5q2 -32 -22.5 -56t-59.5 -24q-36 0 -56.5 19.5t-21.5 55.5q-2 39 -14 72t-36.5 64t-71 49t-110.5 18q-110 0 -171.5 -59t-61.5 -166v-332q0 -33 5.5 -62.5t21 -60.5t40.5 -52.5t67.5 -35.5 t98.5 -14q104 0 166 52.5t66 146.5q2 30 25.5 55.5t54.5 25.5t54.5 -25.5t25.5 -55.5q-14 -161 -121 -261t-271 -100q-183 0 -288 103.5t-105 283.5z" />
<glyph unicode="d" d="M223 391v332q0 179 105 282t286 103q62 0 130 -25.5t104 -70.5l2 385q0 35 23.5 57.5t56.5 22.5q34 0 55 -22.5t21 -57.5v-1325q0 -33 -22.5 -57.5t-55.5 -24.5q-32 0 -56 25t-24 57v26q-40 -46 -106.5 -70t-127.5 -24q-180 0 -285.5 105t-105.5 282zM383 391 q0 -107 61 -166t170 -59q68 0 116 20t72.5 55t35 71.5t10.5 78.5v332q0 107 -61.5 166t-172.5 59q-68 0 -116 -20.5t-71.5 -55.5t-33.5 -71t-10 -78v-332z" />
<glyph unicode="e" d="M223 391v332q0 175 106 280t285 105q182 0 287 -103.5t105 -281.5v-201h-625v-131q0 -33 5.5 -62.5t21 -60.5t40.5 -52.5t67.5 -35.5t98.5 -14q101 0 166.5 52.5t65.5 125.5q0 29 24.5 54.5t55.5 25.5q33 0 56.5 -25.5t23.5 -58.5q0 -135 -115.5 -235.5t-276.5 -100.5 q-183 0 -287 103.5t-104 283.5zM381 684h467v39q0 32 -6 62t-22.5 60.5t-42 52.5t-67.5 36t-96 14q-110 0 -171.5 -59t-61.5 -166v-39z" />
<glyph unicode="f" d="M291 895q0 32 21 55t53 23h135v182q0 151 73 221t234 70h108q32 0 55 -24.5t23 -55.5q0 -32 -22.5 -53t-55.5 -21h-122q-33 0 -60.5 -7.5t-51.5 -34.5t-24 -72v-205h306q28 0 51.5 -24t23.5 -54q0 -33 -23 -55.5t-52 -22.5h-306v-745q0 -35 -21.5 -57.5t-55.5 -22.5 t-57 22.5t-23 57.5v745h-135q-32 0 -53 22t-21 56z" />
<glyph unicode="g" d="M221 391v332q0 175 106.5 280t286.5 105q61 0 128.5 -23.5t105.5 -62.5v20q0 33 22 56.5t56 23.5q32 0 56 -24t24 -56v-1105q0 -83 -18.5 -145.5t-48 -100t-73.5 -60.5t-88.5 -31t-99.5 -8h-57q-35 0 -56.5 20.5t-21.5 53.5q0 34 21.5 56t56.5 22h71q69 0 111.5 39.5 t42.5 122.5v194q-29 -43 -100 -69.5t-132 -26.5q-183 0 -288 103.5t-105 283.5zM381 391q0 -33 5.5 -62.5t21 -60.5t40.5 -52.5t67.5 -35.5t98.5 -14q109 0 170.5 59t61.5 166v332q0 42 -10.5 78.5t-34.5 71t-72 55t-115 20.5q-110 0 -171.5 -59t-61.5 -166v-332z" />
<glyph unicode="h" d="M219 72v1325q0 35 22 57.5t56 22.5q33 0 56.5 -22.5t23.5 -57.5v-385q42 44 110.5 70t126.5 26q182 0 288 -103.5t106 -281.5v-651q0 -32 -25 -57t-57 -25t-56 25t-24 57v651q0 42 -10 78t-34 71t-72 55.5t-116 20.5q-101 0 -168 -58t-67 -147v-671q0 -32 -24 -57 t-56 -25t-56 25t-24 57z" />
<glyph unicode="i" d="M293 100q0 34 21 56t53 22h239v764h-239q-32 0 -53 21t-21 55t21 55t53 21h401v-916h174q32 0 53 -22t21 -56q0 -33 -20.5 -53t-53.5 -20h-575q-33 0 -53.5 20t-20.5 53zM590 1237v225h194v-225h-194z" />
<glyph unicode="j" d="M227 1018q0 34 22 55t56 21h514v-1209q0 -157 -79 -225t-228 -68h-152q-31 0 -53 22.5t-22 53.5t22.5 55.5t52.5 24.5h193q37 0 73 27.5t36 83.5v1083h-357q-34 0 -56 21t-22 55zM641 1237v225h195v-225h-195z" />
<glyph unicode="k" d="M266 72v1327q0 35 22.5 57.5t57.5 22.5q33 0 56.5 -22.5t23.5 -57.5v-781l365 455q20 24 52.5 28t59.5 -18q24 -21 28 -51t-16 -55l-262 -332l299 -532q14 -22 14 -45q0 -8 -2 -16q-6 -30 -36 -48q-18 -11 -38 -11q-11 -1 -24 3q-34 10 -51 41l-270 475l-119 -145v-295 q0 -35 -23.5 -57.5t-56.5 -22.5q-35 0 -57.5 22.5t-22.5 57.5z" />
<glyph unicode="l" d="M125 100q0 34 21 56t55 22h241v1118h-166q-34 0 -55.5 21t-21.5 53q0 34 21.5 56t55.5 22h320v-1270h254q34 0 55 -22t21 -56q0 -33 -21 -53t-55 -20h-649q-34 0 -55 20t-21 53z" />
<glyph unicode="m" d="M113 70v977q0 33 20.5 56t54.5 23q33 0 55.5 -23t22.5 -56v-15q26 31 75.5 53.5t90.5 22.5q123 0 199 -104q40 52 102.5 78t128.5 26q256 0 256 -315v-723q0 -35 -22 -57.5t-56 -22.5q-35 0 -55 22t-20 58v716q0 32 -1.5 52.5t-7.5 44.5t-17.5 37.5t-32 22.5t-50.5 9 q-87 0 -128.5 -59t-41.5 -164v-659q0 -33 -22 -57.5t-56 -24.5q-33 0 -55.5 24.5t-22.5 57.5v721q0 75 -21.5 118t-80.5 43q-160 0 -160 -223v-659q0 -33 -22.5 -57.5t-55.5 -24.5t-55 24.5t-22 57.5z" />
<glyph unicode="n" d="M221 72v970q0 33 22.5 56.5t55.5 23.5q32 0 56 -24t24 -56v-28q39 46 108 70t129 24q181 0 285.5 -103t104.5 -282v-651q0 -35 -23.5 -57.5t-56.5 -22.5q-35 0 -56.5 22.5t-21.5 57.5v651q0 42 -10.5 78.5t-34.5 71t-72 55t-115 20.5q-102 0 -169.5 -62t-67.5 -159v-655 q0 -35 -23.5 -57.5t-56.5 -22.5q-34 0 -56 22.5t-22 57.5z" />
<glyph unicode="o" d="M221 391v332q0 175 106.5 280t286.5 105q182 0 287 -103.5t105 -281.5v-332q0 -177 -106.5 -281t-285.5 -104q-183 0 -288 102.5t-105 282.5zM381 391q0 -43 10 -79.5t33.5 -71.5t72 -55.5t117.5 -20.5q109 0 170.5 60t61.5 167v332q0 42 -10 78t-34 71t-72 55.5 t-116 20.5q-110 0 -171.5 -59t-61.5 -166v-332z" />
<glyph unicode="p" d="M225 -362v1404q0 33 21.5 56.5t54.5 23.5q32 0 56 -24t24 -56v-18q38 38 106.5 61t126.5 23q180 0 286 -105t106 -280v-332q0 -180 -104.5 -283.5t-287.5 -103.5q-153 0 -233 92v-458q0 -30 -24.5 -56t-55.5 -26q-32 0 -54 25.5t-22 56.5zM383 391q0 -107 61 -166 t170 -59q68 0 116 20t72.5 55t35 71.5t10.5 78.5v332q0 107 -61.5 166t-172.5 59q-68 0 -116 -20.5t-71.5 -55.5t-33.5 -71t-10 -78v-332z" />
<glyph unicode="q" d="M227 391v332q0 175 106 280t285 105q58 0 127 -23t107 -61v18q0 32 24 56t56 24q33 0 54.5 -23.5t21.5 -56.5v-1404q0 -31 -22 -56.5t-54 -25.5q-31 0 -55.5 26t-24.5 56v460q-42 -48 -105 -71t-129 -23q-183 0 -287 103.5t-104 283.5zM385 391q0 -42 10.5 -78.5 t34.5 -71.5t72 -55t116 -20q109 0 170.5 59t61.5 166v332q0 42 -10 78t-34 71t-72 55.5t-116 20.5q-110 0 -171.5 -59t-61.5 -166v-332z" />
<glyph unicode="r" d="M207 100q0 32 21.5 56t54.5 24h114v867q0 33 22 56t56 23q35 0 57.5 -23t22.5 -56v-15q31 35 83.5 55.5t102.5 20.5q150 0 241 -80q95 -83 95 -242q0 -30 -23 -52q-24 -24 -55 -23.5t-53 22.5t-24 53q-4 86 -53 125t-128 39q-77 0 -130.5 -49.5t-53.5 -140.5v-580h285 q31 0 52 -24t21 -56q0 -31 -20.5 -53t-52.5 -22h-559q-33 0 -54.5 22t-21.5 53z" />
<glyph unicode="s" d="M219 330q0 31 24.5 55.5t55.5 24.5q32 0 56 -24.5t24 -55.5q3 -158 235 -158q48 0 84.5 5.5t75 20.5t59.5 48.5t21 83.5q0 46 -27.5 82.5t-72.5 48.5l-314 88q-92 27 -146 94t-54 160q0 81 29.5 141t82 94.5t118 51t144.5 16.5q180 0 285.5 -81.5t108.5 -238.5 q0 -33 -23.5 -55t-56.5 -22q-35 0 -55.5 21.5t-22.5 55.5q-1 81 -66.5 121.5t-173.5 40.5q-213 0 -213 -145q0 -31 26 -62t66 -41l314 -86q99 -28 156 -103.5t57 -180.5q0 -322 -402 -322q-116 0 -203.5 35t-139 108.5t-52.5 178.5z" />
<glyph unicode="t" d="M131 1012q0 29 21 52t53 23h155v310q0 35 21.5 57.5t56.5 22.5q33 0 56.5 -22.5t23.5 -57.5v-310h287q32 0 56 -23.5t24 -51.5q0 -34 -23.5 -56t-56.5 -22h-287v-576q0 -105 36 -152.5t110 -47.5q78 0 118 37.5t43 126.5q2 28 26 51.5t54 23.5q29 0 53 -25q23 -23 23 -49 q0 -151 -93 -241q-84 -82 -224 -82q-138 0 -221 90t-83 264v580h-155q-34 0 -54 21.5t-20 56.5z" />
<glyph unicode="u" d="M221 391v651q0 33 22.5 56.5t55.5 23.5q32 0 56 -24t24 -56v-651q0 -42 10.5 -78.5t34.5 -71.5t72 -55t116 -20q102 0 169 55.5t67 147.5v673q0 33 22 56.5t56 23.5q32 0 56 -24t24 -56v-970q0 -35 -23.5 -57.5t-56.5 -22.5q-35 0 -56.5 22.5t-21.5 57.5v20 q-43 -38 -111 -62t-125 -24q-183 0 -287 102.5t-104 282.5z" />
<glyph unicode="v" d="M256 1018q-3 11 -3 22q0 22 11 40q16 28 51 36q12 3 23 3q22 0 42 -12q28 -18 36 -54l198 -871l197 871q5 29 35 49q23 15 48 15q8 0 15 -1q33 -4 52 -34q13 -20 13 -44q0 -11 -3 -22l-234 -989h-245z" />
<glyph unicode="w" d="M70 1028q-1 8 -1 15q-1 23 13 45q18 28 51 34q9 2 18 2q27 0 49 -14q30 -18 33 -51l136 -864l182 899h129l182 -901l135 864q5 35 37 53q22 12 46 12q9 0 18 -2q34 -7 50 -35q12 -21 13 -43q0 -8 -2 -16l-186 -1006h-211l-146 736l-147 -736h-209z" />
<glyph unicode="x" d="M268 52q-2 10 -2 20q0 21 10 41l250 442l-239 434q-17 28 -10.5 61.5t38.5 49.5q17 10 36 10q11 0 23 -4q32 -10 48 -39l192 -354l193 354q15 28 46 38q11 4 23 4l39 -11q31 -18 37 -49.5t-10 -59.5l-237 -434l247 -442q12 -22 12 -44q0 -9 -2 -19q-7 -32 -34 -46 q-19 -11 -39 -11q-13 0 -25 4q-34 10 -47 36l-203 366l-202 -366q-14 -26 -48 -36q-12 -4 -24 -4q-20 0 -39 11q-26 15 -33 48z" />
<glyph unicode="y" d="M250 1022q-2 9 -2 18q0 22 13 43q18 29 46 35q12 3 23 3q22 0 42 -13q28 -18 36 -51l196 -871h12l203 871q6 30 36 49q22 14 45 14q9 0 18 -2q32 -6 50 -36q12 -20 12 -41q0 -9 -3 -19l-291 -1200q-30 -125 -108 -181.5t-203 -56.5h-15q-34 0 -56.5 23t-22.5 55 q0 33 22.5 57.5t56.5 24.5h23q56 0 100.5 25.5t55.5 76.5l41 177h-93z" />
<glyph unicode="z" d="M205 1014q0 28 24 52t54 24h651v-132l-512 -776h524q31 0 54.5 -24.5t23.5 -55.5q0 -30 -23.5 -52.5t-54.5 -22.5h-723v125l516 782h-456q-31 0 -54.5 24t-23.5 56z" />
<glyph unicode="{" d="M440 131v1194q0 75 13.5 114.5t46.5 71.5q58 58 186 58h29q29 0 51 -21.5t22 -50.5q0 -32 -21.5 -53t-51.5 -21h-29q-66 0 -76 -12q-16 -19 -16 -108v-1156q0 -76 16 -94t86 -18h19q29 0 51 -22.5t22 -51.5t-22 -51.5t-51 -22.5h-29q-119 0 -184 58q-33 30 -47.5 71.5 t-14.5 114.5z" />
<glyph unicode="|" d="M539 -43v1554q0 30 20.5 54t52.5 24q31 0 53.5 -24.5t22.5 -53.5v-1554q0 -31 -22 -54.5t-54 -23.5q-33 0 -53 23t-20 55z" />
<glyph unicode="}" d="M440 -39q0 29 22.5 51.5t51.5 22.5h18q70 0 86.5 18.5t16.5 93.5v1156q0 88 -17 108q-10 12 -75 12h-29q-30 0 -52 21t-22 53q0 29 22.5 50.5t51.5 21.5h29q128 0 186 -58q33 -31 46 -71t13 -115v-1194q0 -73 -14 -114.5t-47 -71.5q-65 -58 -184 -58h-29 q-29 0 -51.5 22.5t-22.5 51.5z" />
<glyph unicode="~" d="M234 554q4 23 24 42q55 53 103.5 74.5t105.5 21.5q64 0 160 -47q80 -43 137 -43q28 0 50 10.5t56 42.5q22 22 47 26t42.5 -8t28.5 -30.5t6.5 -43t-25.5 -44.5q-46 -42 -81 -63t-61.5 -27t-66.5 -6q-61 0 -152 43q-104 47 -147 47q-28 0 -50.5 -11t-58.5 -44 q-20 -19 -43.5 -21.5t-40.5 10t-27.5 30.5t-6.5 41z" />
<glyph unicode="&#xa0;" />
<glyph unicode="&#xa2;" d="M92 729q0 142 68 261t187 188t261 69q106 0 201.5 -40.5t164.5 -109.5t109.5 -165.5t40.5 -202.5q0 -107 -40.5 -203t-109.5 -165.5t-164.5 -110.5t-201.5 -41q-216 0 -366 151.5t-150 368.5zM246 729q0 -154 105.5 -262.5t256.5 -108.5t257 108.5t106 262.5 q0 152 -106 260.5t-257 108.5q-150 0 -256 -108t-106 -261zM461 430v559h182q40 0 71 -12t48.5 -30.5t29 -42.5t15.5 -44.5t4 -40.5v-35q0 -24 -7 -50t-24 -54t-52 -46t-83 -18h-51v-186h-133zM594 752h49q11 0 22 7.5t11 26.5v31q0 22 -11 30.5t-22 8.5h-49v-104z" />
<glyph unicode="&#xa3;" d="M170 768q0 33 21.5 54.5t54.5 21.5h30v217q0 170 103 275.5t276 105.5t280 -107t107 -282q0 -35 -22 -56.5t-55 -21.5q-35 0 -57.5 21.5t-22.5 56.5q0 56 -17 99t-41.5 67t-57.5 39.5t-61 20.5t-55 5q-29 0 -57 -5t-59 -19.5t-54 -37t-38 -61t-15 -88.5v-229h391 q32 0 53 -21t21 -55q0 -32 -21 -54t-53 -22h-391v-530h547q31 0 55.5 -25t24.5 -57q0 -29 -24.5 -53.5t-55.5 -24.5h-701v690h-30q-32 0 -54 22t-22 54z" />
<glyph unicode="&#xa4;" d="M106 786l52 152h137v143q0 43 9 88.5t35 99.5t67 95.5t112 69.5t162 28t162 -28t111.5 -69.5t66.5 -96.5t34.5 -101.5t8.5 -91.5q0 -32 -24.5 -55t-53.5 -23q-34 0 -55 22t-21 56q0 56 -16.5 99t-40.5 67t-57 39.5t-60 20t-55 4.5q-24 0 -50.5 -5t-59.5 -20t-58 -39.5 t-42 -67.5t-17 -98v-135h432l-49 -152h-383v-122h372l-49 -150h-323v-123q0 -56 16.5 -99t41 -66.5t57 -38t59 -19t53.5 -4.5q28 0 55 4.5t60 19t57 38.5t40.5 67t16.5 100q0 29 22 53.5t54 24.5q28 0 53 -25t25 -53q0 -46 -9 -93.5t-35 -102.5t-67.5 -96t-113 -69 t-164.5 -28q-90 0 -160 27.5t-110 69t-66 96t-34.5 101t-8.5 91.5v123h-186l51 150h135v122h-189z" />
<glyph unicode="&#xa6;" d="M541 8v557q0 34 20 55t53 21q34 0 54 -21t20 -55v-557q0 -33 -20.5 -54.5t-53.5 -21.5t-53 21.5t-20 54.5zM541 893v555q0 34 20 55t53 21q34 0 54 -21t20 -55v-555q0 -35 -20 -56.5t-54 -21.5t-53.5 21.5t-19.5 56.5z" />
<glyph unicode="&#xa7;" d="M215 330q0 31 24.5 55.5t55.5 24.5q32 0 56 -24.5t24 -55.5q3 -158 235 -158q48 0 84.5 5.5t75 20.5t59.5 48.5t21 83.5q0 41 -28 78.5t-72 50.5q-62 19 -187.5 53.5t-146.5 40.5q-84 24 -136.5 91t-52.5 159q0 112 52 178q-52 68 -52 160q0 80 29.5 140t82.5 95 t118.5 51.5t144.5 16.5q182 0 286 -81.5t107 -240.5q0 -33 -23.5 -54t-56.5 -21q-35 0 -55 20.5t-22 54.5q-1 83 -66.5 123.5t-173.5 40.5q-213 0 -213 -145q0 -74 76 -97q20 -6 336 -100q101 -30 158 -101t57 -173q0 -106 -47 -176q47 -70 47 -164q0 -322 -402 -322 q-116 0 -203.5 35t-139 108.5t-52.5 178.5zM385 803q0 -33 21 -62t57 -39l334 -96q30 -9 43 -16q10 25 10 80q0 41 -27.5 76.5t-72.5 48.5l-336 98q-29 -36 -29 -90z" />
<glyph unicode="&#xa8;" d="M309 1235v229h197v-229h-197zM721 1237v227h197v-227h-197z" />
<glyph unicode="&#xa9;" d="M90 729q0 106 40.5 202.5t109.5 165.5t164.5 109.5t201.5 40.5q107 0 203 -40.5t165 -109.5t109.5 -165t40.5 -203t-40.5 -203t-109.5 -165.5t-165.5 -110.5t-202.5 -41t-201.5 41t-164.5 110.5t-109.5 165.5t-40.5 203zM246 729q0 -153 105.5 -262t254.5 -109 q151 0 258 109.5t107 261.5q0 151 -107 259t-258 108q-149 0 -254.5 -108t-105.5 -259zM428 610v234q0 25 7.5 51t24.5 54.5t52.5 46.5t85.5 18t85.5 -18t52.5 -46.5t24.5 -55t7.5 -52.5v-70h-135v70q0 32 -35 32q-37 0 -37 -32v-230q0 -34 37 -34q35 0 35 34v86h135v-88 q0 -25 -7.5 -51t-24.5 -54.5t-53.5 -46.5t-86.5 -18q-49 0 -84.5 18t-52.5 46.5t-24 54.5t-7 51z" />
<glyph unicode="&#xab;" d="M199 559l295 295q21 21 52.5 22t55.5 -22q23 -24 22.5 -56.5t-22.5 -54.5l-186 -184l186 -186q23 -23 23 -55.5t-23 -55.5q-22 -22 -54 -22t-54 22zM586 559l295 295q21 21 52.5 22t55.5 -22q23 -24 22.5 -56.5t-22.5 -54.5l-186 -184l186 -186q23 -23 23 -55.5 t-23 -55.5q-22 -22 -54 -22t-54 22z" />
<glyph unicode="&#xac;" />
<glyph unicode="&#xad;" d="M297 563q0 34 22 55t56 21h477q34 0 56 -21t22 -55t-22 -55t-56 -21h-477q-34 0 -56 21t-22 55z" />
<glyph unicode="&#xae;" d="M92 729q0 142 68 261t187 188t261 69t261 -69t187 -188t68 -261q0 -217 -150 -368.5t-366 -151.5t-366 151.5t-150 368.5zM246 729q0 -154 105.5 -262.5t256.5 -108.5t257 108.5t106 262.5q0 152 -106 260.5t-257 108.5q-150 0 -256 -108t-106 -261zM446 442v559h185 q40 0 71.5 -12.5t49 -30.5t29 -41.5t15 -43.5t3.5 -39v-29q0 -34 -23.5 -80t-68.5 -72l114 -211h-153l-86 164v-164h-136zM582 770h51q10 0 20.5 8t10.5 27v24q0 20 -11 28.5t-22 8.5h-49v-96z" />
<glyph unicode="&#xaf;" d="M285 1278q0 35 22.5 56.5t57.5 21.5h499q35 0 57.5 -21.5t22.5 -56.5q0 -32 -22.5 -53t-57.5 -21h-499q-35 0 -57.5 21t-22.5 53z" />
<glyph unicode="&#xb0;" horiz-adv-x="1024" />
<glyph unicode="&#xb4;" d="M440 1163l162 338h195l-205 -338h-152z" />
<glyph unicode="&#xb6;" d="M209 1110q0 174 95.5 261t273.5 87h440v-1431l-154 -2v1290h-157v-1290h-154v766q-158 15 -251 103.5t-93 215.5z" />
<glyph unicode="&#xb7;" d="M502 455v221h223v-221h-223z" />
<glyph unicode="&#xb8;" d="M457 -389l155 323h156l-129 -323h-182z" />
<glyph unicode="&#xbb;" d="M208 317.5q0 32.5 23 55.5l187 186l-187 184q-22 22 -22.5 54.5t22.5 56.5q24 23 56 22t53 -22l295 -295l-295 -297q-22 -22 -54.5 -22t-54.5 22q-23 23 -23 55.5zM595 317.5q0 32.5 23 55.5l187 186l-187 184q-22 22 -22.5 54.5t22.5 56.5q24 23 56 22t53 -22l295 -295 l-295 -297q-22 -22 -54.5 -22t-54.5 22q-23 23 -23 55.5z" />
<glyph unicode="&#xc0;" d="M137 94q-8 -35 9.5 -62t54.5 -34q32 -6 57.5 9t34.5 52l88 363h467l88 -363q9 -34 37 -50.5t59 -10.5t49 34.5t11 61.5l-322 1354h-315zM410 1860h188l168 -338h-156zM416 580l164 712h69l162 -712h-395z" />
<glyph unicode="&#xc1;" d="M137 94q-8 -35 9.5 -62t54.5 -34q32 -6 57.5 9t34.5 52l88 363h467l88 -363q9 -34 37 -50.5t59 -10.5t49 34.5t11 61.5l-322 1354h-315zM416 580l164 712h69l162 -712h-395zM436 1520l162 340h195l-205 -340h-152z" />
<glyph unicode="&#xc2;" d="M137 94q-8 -35 9.5 -62t54.5 -34q32 -6 57.5 9t34.5 52l88 363h467l88 -363q9 -34 37 -50.5t59 -10.5t49 34.5t11 61.5l-322 1354h-315zM365 1583q0 28 22 51l184 199h86l185 -195q23 -25 22.5 -54.5t-22.5 -51.5q-19 -21 -53 -20t-58 26l-117 125l-118 -129 q-23 -26 -55.5 -27t-53.5 23q-22 25 -22 53zM416 580l164 712h69l162 -712h-395z" />
<glyph unicode="&#xc3;" d="M137 94q-8 -35 9.5 -62t54.5 -34q32 -6 57.5 9t34.5 52l88 363h467l88 -363q9 -34 37 -50.5t59 -10.5t49 34.5t11 61.5l-322 1354h-315zM308.5 1618q4.5 29 27.5 49q93 86 172 86q54 0 139 -47q6 -3 20.5 -11t22.5 -11.5t20 -9t22.5 -7.5t21.5 -2q36 0 77 43q22 21 55 20 t52 -22q19 -23 15 -54.5t-27 -54.5q-86 -79 -170 -79q-37 0 -138 49q-76 39 -108 39q-35 0 -72 -37q-29 -29 -59 -30t-53 24q-22 26 -17.5 55zM416 580l164 712h69l162 -712h-395z" />
<glyph unicode="&#xc4;" d="M137 94q-8 -35 9.5 -62t54.5 -34q32 -6 57.5 9t34.5 52l88 363h467l88 -363q9 -34 37 -50.5t59 -10.5t49 34.5t11 61.5l-322 1354h-315zM307 1546v228h197v-228h-197zM416 580l164 712h69l162 -712h-395zM719 1546v228h196v-228h-196z" />
<glyph unicode="&#xc5;" d="M137 94q-8 -35 9.5 -62t54.5 -34q32 -6 57.5 9t34.5 52l88 363h467l88 -363q9 -34 37 -50.5t59 -10.5t49 34.5t11 61.5l-322 1354h-315zM381 1729q0 91 64.5 158t156.5 67q94 0 160.5 -65.5t66.5 -159.5q0 -89 -67.5 -155.5t-159.5 -66.5q-91 0 -156 66t-65 156zM416 580 l164 712h69l162 -712h-395zM522 1729q0 -32 24 -56t56 -24q34 0 59 24t25 56q0 35 -25 59t-59 24q-33 0 -56.5 -24t-23.5 -59z" />
<glyph unicode="&#xc7;" d="M211 391v690q0 41 10.5 87t39.5 100t72 96t117 70t166 28q88 0 159.5 -26.5t114.5 -67t72 -93t40.5 -100t11.5 -92.5q0 -33 -23 -54t-55 -21q-33 0 -54.5 21t-21.5 54q-1 54 -19.5 96t-45.5 65.5t-62 38t-63 19.5t-54 5q-35 0 -71.5 -9t-79 -31.5t-69.5 -71.5t-27 -118 v-686q0 -69 27 -117.5t69.5 -70.5t79 -30.5t71.5 -8.5q27 0 55 4.5t63.5 19.5t62 39t45 67t18.5 99q0 31 22 55.5t54 24.5t56 -24.5t24 -55.5q0 -39 -10 -83t-35 -93.5t-62 -90.5t-98 -73t-137 -43l-94 -235h-179l115 241q-84 16 -147 60.5t-95.5 102t-47.5 111t-15 101.5z " />
<glyph unicode="&#xc8;" d="M211 25v1423h727q31 0 54.5 -24.5t23.5 -55.5q0 -29 -23.5 -52.5t-54.5 -23.5h-569v-438h524q31 0 54.5 -23.5t23.5 -54.5q0 -28 -24 -53t-54 -25h-522v-518h567q31 0 54.5 -24.5t23.5 -55.5q0 -30 -23.5 -52.5t-54.5 -22.5h-727zM416 1868h188l168 -338h-156z" />
<glyph unicode="&#xc9;" d="M211 25v1423h727q31 0 54.5 -24.5t23.5 -55.5q0 -29 -23.5 -52.5t-54.5 -23.5h-569v-438h524q31 0 54.5 -23.5t23.5 -54.5q0 -28 -24 -53t-54 -25h-522v-518h567q31 0 54.5 -24.5t23.5 -55.5q0 -30 -23.5 -52.5t-54.5 -22.5h-727zM418 1507l164 336h194l-201 -336h-157z " />
<glyph unicode="&#xca;" d="M211 25v1423h727q31 0 54.5 -24.5t23.5 -55.5q0 -29 -23.5 -52.5t-54.5 -23.5h-569v-438h524q31 0 54.5 -23.5t23.5 -54.5q0 -28 -24 -53t-54 -25h-522v-518h567q31 0 54.5 -24.5t23.5 -55.5q0 -30 -23.5 -52.5t-54.5 -22.5h-727zM365 1583q0 28 22 51l184 199h86 l185 -195q23 -25 22.5 -54.5t-22.5 -51.5q-19 -21 -53 -20t-58 26l-117 125l-118 -129q-23 -26 -55.5 -27t-53.5 23q-22 25 -22 53z" />
<glyph unicode="&#xcb;" d="M211 25v1423h727q31 0 54.5 -24.5t23.5 -55.5q0 -29 -23.5 -52.5t-54.5 -23.5h-569v-438h524q31 0 54.5 -23.5t23.5 -54.5q0 -28 -24 -53t-54 -25h-522v-518h567q31 0 54.5 -24.5t23.5 -55.5q0 -30 -23.5 -52.5t-54.5 -22.5h-727zM299 1591v230h197v-230h-197zM711 1593 v228h196v-228h-196z" />
<glyph unicode="&#xcc;" d="M307 100q0 33 23 57.5t57 24.5h150v1108h-150q-35 0 -57.5 21t-22.5 55q0 33 23.5 57.5t60.5 24.5h447q32 0 57 -25t25 -57q0 -33 -24.5 -54.5t-57.5 -21.5h-150v-1108h150q32 0 57 -25t25 -57q0 -33 -24.5 -54t-57.5 -21h-451q-35 0 -57.5 20.5t-22.5 54.5zM397 1860 h189l168 -338h-156z" />
<glyph unicode="&#xcd;" d="M307 100q0 33 23 57.5t57 24.5h150v1108h-150q-35 0 -57.5 21t-22.5 55q0 33 23.5 57.5t60.5 24.5h447q32 0 57 -25t25 -57q0 -33 -24.5 -54.5t-57.5 -21.5h-150v-1108h150q32 0 57 -25t25 -57q0 -33 -24.5 -54t-57.5 -21h-451q-35 0 -57.5 20.5t-22.5 54.5zM434 1520 l164 340h195l-205 -340h-154z" />
<glyph unicode="&#xce;" d="M307 100q0 33 23 57.5t57 24.5h150v1108h-150q-35 0 -57.5 21t-22.5 55q0 33 23.5 57.5t60.5 24.5h447q32 0 57 -25t25 -57q0 -33 -24.5 -54.5t-57.5 -21.5h-150v-1108h150q32 0 57 -25t25 -57q0 -33 -24.5 -54t-57.5 -21h-451q-35 0 -57.5 20.5t-22.5 54.5zM365 1583 q0 28 22 51l184 199h86l185 -195q23 -25 22.5 -54.5t-22.5 -51.5q-19 -21 -53 -20t-58 26l-117 125l-118 -129q-23 -26 -55.5 -27t-53.5 23q-22 25 -22 53z" />
<glyph unicode="&#xcf;" d="M307 100q0 33 23 57.5t57 24.5h150v1108h-150q-35 0 -57.5 21t-22.5 55q0 33 23.5 57.5t60.5 24.5h447q32 0 57 -25t25 -57q0 -33 -24.5 -54.5t-57.5 -21.5h-150v-1108h150q32 0 57 -25t25 -57q0 -33 -24.5 -54t-57.5 -21h-451q-35 0 -57.5 20.5t-22.5 54.5zM309 1591 v230h197v-230h-197zM721 1593v228h197v-228h-197z" />
<glyph unicode="&#xd0;" d="M231 354q0 148 89.5 238t238.5 90h279v68q0 100 -59 150t-144 50q-88 0 -151.5 -40t-69.5 -124q-1 -30 -24.5 -52.5t-53.5 -22.5t-54.5 23.5t-23.5 53.5q9 158 115 239t262 81q72 0 136 -22.5t114.5 -65t80 -111.5t29.5 -155v-686q0 -35 -23.5 -57.5t-56.5 -22.5 q-35 0 -56 22t-21 58v20q-52 -40 -113.5 -61t-112.5 -21q-62 0 -117 11t-104 37t-84 65.5t-55.5 99.5t-20.5 135zM389 354q0 -192 227 -192q81 0 150.5 51.5t69.5 138.5v174h-273q-85 0 -129.5 -44.5t-44.5 -127.5z" />
<glyph unicode="&#xd1;" d="M223 68v1380h236l387 -1174v1127q0 35 23.5 57.5t56.5 22.5t56.5 -22.5t23.5 -57.5v-1378h-244l-379 1151v-1106q0 -32 -24 -57t-56 -25t-56 25t-24 57zM308.5 1618q4.5 29 27.5 49q93 86 172 86q54 0 139 -47q6 -3 20.5 -11t22.5 -11.5t20 -9t22.5 -7.5t21.5 -2 q36 0 77 43q22 21 55 20t52 -22q19 -23 15 -54.5t-27 -54.5q-86 -79 -170 -79q-37 0 -138 49q-76 39 -108 39q-35 0 -72 -37q-29 -29 -59 -30t-53 24q-22 26 -17.5 55z" />
<glyph unicode="&#xd2;" d="M211 391v690q0 41 10.5 87t39 100t71.5 96t116.5 70t165.5 28q90 0 163 -28t116.5 -70.5t73 -96t40.5 -100.5t11 -88v-690q0 -43 -11 -90t-40.5 -100.5t-74 -95t-119 -69.5t-167.5 -28q-90 0 -162 28t-114.5 69.5t-70.5 95.5t-38 101t-10 91zM369 391q0 -56 18.5 -99 t45.5 -66.5t62.5 -38t63.5 -19t55 -4.5t55 4.5t64 19.5t63 38.5t45.5 66.5t18.5 98v686q0 55 -18.5 98t-45.5 67.5t-62.5 39.5t-64 20t-55.5 5t-55 -4.5t-63.5 -20t-62.5 -39.5t-45.5 -67t-18.5 -99v-686zM401 1860h189l168 -338h-156z" />
<glyph unicode="&#xd3;" d="M211 391v690q0 34 7.5 71.5t24.5 82t48.5 83.5t74 72t107.5 52.5t143 19.5q90 0 163 -28t116 -70.5t72 -96t40 -100.5t11 -88v-690q0 -43 -11 -90t-40.5 -100.5t-73.5 -95t-118.5 -69.5t-166.5 -28q-90 0 -162.5 28t-115 69.5t-70.5 95.5t-38.5 101t-10.5 91zM369 391 q0 -69 27 -117.5t69.5 -70.5t79 -30.5t71.5 -8.5t71.5 9t78 31t68 70.5t26.5 116.5v686q0 68 -26.5 117t-68 71.5t-78 32t-71.5 9.5t-71.5 -9t-79 -31.5t-69.5 -71.5t-27 -118v-686zM422 1520l164 340h194l-200 -340h-158z" />
<glyph unicode="&#xd4;" d="M211 391v690q0 41 10.5 87t39.5 100t72 96t117 70t166 28q90 0 163 -28t116 -70.5t72 -96t40 -100.5t11 -88v-690q0 -43 -11 -90t-40.5 -100.5t-73.5 -95t-118.5 -69.5t-166.5 -28q-90 0 -162.5 28t-115 69.5t-70.5 95.5t-38.5 101t-10.5 91zM365 1583q0 28 22 51 l184 199h86l185 -195q23 -25 22.5 -54.5t-22.5 -51.5q-19 -21 -53 -20t-58 26l-117 125l-118 -129q-23 -26 -55.5 -27t-53.5 23q-22 25 -22 53zM369 391q0 -69 27 -117.5t69.5 -70.5t79 -30.5t71.5 -8.5t71.5 9t78 31t68 70.5t26.5 116.5v686q0 68 -26.5 117t-68 71.5 t-78 32t-71.5 9.5t-71.5 -9t-79 -31.5t-69.5 -71.5t-27 -118v-686z" />
<glyph unicode="&#xd5;" d="M211 391v690q0 34 7.5 71.5t24.5 82t48.5 83.5t74 72t107.5 52.5t143 19.5q90 0 163 -28t116 -70.5t72 -96t40 -100.5t11 -88v-690q0 -43 -11 -90t-40.5 -100.5t-73.5 -95t-118.5 -69.5t-166.5 -28q-90 0 -162.5 28t-115 69.5t-70.5 95.5t-38.5 101t-10.5 91zM308.5 1618 q4.5 29 27.5 49q93 86 172 86q54 0 139 -47q6 -3 20.5 -11t22.5 -11.5t20 -9t22.5 -7.5t21.5 -2q36 0 77 43q22 21 55 20t52 -22q19 -23 15 -54.5t-27 -54.5q-86 -79 -170 -79q-37 0 -138 49q-76 39 -108 39q-35 0 -72 -37q-29 -29 -59 -30t-53 24q-22 26 -17.5 55zM369 391 q0 -69 27 -117.5t69.5 -70.5t79 -30.5t71.5 -8.5t71.5 9t78 31t68 70.5t26.5 116.5v686q0 68 -26.5 117t-68 71.5t-78 32t-71.5 9.5t-71.5 -9t-79 -31.5t-69.5 -71.5t-27 -118v-686z" />
<glyph unicode="&#xd6;" d="M211 391v690q0 41 10.5 87t39.5 100t72 96t117 70t166 28q90 0 163 -28t116 -70.5t72 -96t40 -100.5t11 -88v-690q0 -43 -11 -90t-40.5 -100.5t-73.5 -95t-118.5 -69.5t-166.5 -28q-90 0 -162.5 28t-115 69.5t-70.5 95.5t-38.5 101t-10.5 91zM315 1544v228h197v-228h-197 zM369 391q0 -69 27 -117.5t69.5 -70.5t79 -30.5t71.5 -8.5t71.5 9t78 31t68 70.5t26.5 116.5v686q0 68 -26.5 117t-68 71.5t-78 32t-71.5 9.5t-71.5 -9t-79 -31.5t-69.5 -71.5t-27 -118v-686zM727 1544v228h197v-228h-197z" />
<glyph unicode="&#xd7;" d="M257 280.5q0 33.5 24 57.5l225 227l-225 226q-22 22 -23.5 53t18.5 53t54.5 22t56.5 -20l227 -225l226 221q23 23 57.5 24t54.5 -22q21 -23 20 -53t-24 -53l-223 -228l219 -225q24 -24 25 -58t-23 -55q-21 -20 -53 -20t-55 22l-226 230l-225 -230q-23 -23 -55.5 -23.5 t-52.5 21.5q-22 22 -22 55.5z" />
<glyph unicode="&#xd8;" />
<glyph unicode="&#xd9;" d="M209 391v1010q0 35 21.5 57.5t56.5 22.5q32 0 56 -23t24 -57v-1010q0 -69 27 -117.5t69.5 -70.5t79 -30.5t71.5 -8.5q27 0 55 4.5t64 19.5t63 38.5t45.5 66.5t18.5 98v1010q0 35 22 57.5t56 22.5q33 0 56.5 -22.5t23.5 -57.5v-1012q0 -43 -11 -90t-41 -100.5t-74.5 -95.5 t-119 -69.5t-166.5 -27.5q-90 0 -162.5 28t-115 69.5t-70.5 95.5t-38.5 101t-10.5 91zM403 1860h189l168 -338h-156z" />
<glyph unicode="&#xda;" d="M209 391v1010q0 35 21.5 57.5t56.5 22.5q32 0 56 -23t24 -57v-1010q0 -69 27 -117.5t69.5 -70.5t79 -30.5t71.5 -8.5q27 0 55 4.5t64 19.5t63 38.5t45.5 66.5t18.5 98v1010q0 35 22 57.5t56 22.5q33 0 56.5 -22.5t23.5 -57.5v-1012q0 -43 -11 -90t-41 -100.5t-74.5 -95.5 t-119 -69.5t-166.5 -27.5q-90 0 -162.5 28t-115 69.5t-70.5 95.5t-38.5 101t-10.5 91zM434 1520l164 340h195l-205 -340h-154z" />
<glyph unicode="&#xdb;" d="M209 391v1010q0 35 21.5 57.5t56.5 22.5q32 0 56 -23t24 -57v-1010q0 -69 27 -117.5t69.5 -70.5t79 -30.5t71.5 -8.5q27 0 55 4.5t64 19.5t63 38.5t45.5 66.5t18.5 98v1010q0 35 22 57.5t56 22.5q33 0 56.5 -22.5t23.5 -57.5v-1012q0 -43 -11 -90t-41 -100.5t-74.5 -95.5 t-119 -69.5t-166.5 -27.5q-90 0 -162.5 28t-115 69.5t-70.5 95.5t-38.5 101t-10.5 91zM357 1583q0 28 22 51l184 199h86l185 -195q23 -25 22.5 -54.5t-22.5 -51.5q-19 -21 -53 -20t-58 26l-117 125l-119 -129q-23 -26 -55 -27t-53 23q-22 25 -22 53z" />
<glyph unicode="&#xdc;" d="M209 391v1010q0 35 21.5 57.5t56.5 22.5q32 0 56 -23t24 -57v-1010q0 -69 27 -117.5t69.5 -70.5t79 -30.5t71.5 -8.5q27 0 55 4.5t64 19.5t63 38.5t45.5 66.5t18.5 98v1010q0 35 22 57.5t56 22.5q33 0 56.5 -22.5t23.5 -57.5v-1012q0 -43 -11 -90t-41 -100.5t-74.5 -95.5 t-119 -69.5t-166.5 -27.5q-90 0 -162.5 28t-115 69.5t-70.5 95.5t-38.5 101t-10.5 91zM303 1546v228h197v-228h-197zM715 1546v228h196v-228h-196z" />
<glyph unicode="&#xdf;" d="M207 70v1009q0 35 6.5 72t21.5 82t44 84t69.5 72t103.5 52t140 19q91 0 161 -26.5t110.5 -66t66.5 -92t34.5 -97t8.5 -88.5v-31q0 -66 -24.5 -133t-74.5 -111q148 -87 148 -305v-102q0 -36 -6.5 -74t-21.5 -83t-43.5 -84t-68 -71.5t-101 -51.5t-136.5 -19h-84 q-35 0 -56.5 20.5t-21.5 54.5q0 33 22 57.5t56 24.5h80q26 0 52.5 4.5t58.5 19.5t56 38.5t40 66t16 97.5v96q0 56 -14.5 98.5t-36 66t-51 38.5t-54.5 19.5t-51 4.5h-69v160h67q78 0 121 43t43 125v26q0 56 -16.5 97.5t-40.5 64t-57 36t-59 17t-54 3.5q-27 0 -54 -5 t-59.5 -20t-56.5 -39t-40.5 -66.5t-16.5 -97.5v-1005q0 -35 -23 -57.5t-57 -22.5q-35 0 -56.5 22.5t-21.5 57.5z" />
<glyph unicode="&#xe0;" d="M219 391v332q0 175 107.5 280t287.5 105q59 0 128 -23.5t110 -62.5v22q0 31 22.5 54.5t55.5 23.5q31 0 54.5 -23.5t23.5 -54.5v-974q0 -33 -23.5 -55.5t-54.5 -22.5q-34 0 -56 22t-22 56v20q-40 -39 -110 -62.5t-128 -23.5q-183 0 -289 103.5t-106 283.5zM381 391 q0 -33 5.5 -62.5t21 -60.5t40.5 -52.5t67.5 -35.5t98.5 -14q110 0 173 58.5t63 166.5v332q0 41 -10.5 78t-35.5 71.5t-73.5 55t-116.5 20.5q-110 0 -171.5 -59t-61.5 -166v-332zM432 1501h195l164 -336h-154z" />
<glyph unicode="&#xe1;" d="M219 391v332q0 175 107.5 280t287.5 105q59 0 128 -23.5t110 -62.5v22q0 31 22.5 54.5t55.5 23.5q31 0 54.5 -23.5t23.5 -54.5v-974q0 -33 -23.5 -55.5t-54.5 -22.5q-34 0 -56 22t-22 56v20q-40 -39 -110 -62.5t-128 -23.5q-183 0 -289 103.5t-106 283.5zM381 391 q0 -33 5.5 -62.5t21 -60.5t40.5 -52.5t67.5 -35.5t98.5 -14q110 0 173 58.5t63 166.5v332q0 41 -10.5 78t-35.5 71.5t-73.5 55t-116.5 20.5q-110 0 -171.5 -59t-61.5 -166v-332zM459 1163l170 338h186l-201 -338h-155z" />
<glyph unicode="&#xe2;" d="M219 391v332q0 175 107.5 280t287.5 105q59 0 128 -23.5t110 -62.5v22q0 31 22.5 54.5t55.5 23.5q31 0 54.5 -23.5t23.5 -54.5v-974q0 -33 -23.5 -55.5t-54.5 -22.5q-34 0 -56 22t-22 56v20q-40 -39 -110 -62.5t-128 -23.5q-183 0 -289 103.5t-106 283.5zM365 1239 q0 28 22 51l184 199h86l185 -195q23 -25 22.5 -54.5t-22.5 -51.5q-19 -21 -53 -20t-58 26l-117 125l-118 -129q-23 -26 -55.5 -27t-53.5 23q-22 25 -22 53zM381 391q0 -33 5.5 -62.5t21 -60.5t40.5 -52.5t67.5 -35.5t98.5 -14q110 0 173 58.5t63 166.5v332q0 41 -10.5 78 t-35.5 71.5t-73.5 55t-116.5 20.5q-110 0 -171.5 -59t-61.5 -166v-332z" />
<glyph unicode="&#xe3;" d="M219 391v332q0 175 107.5 280t287.5 105q59 0 128 -23.5t110 -62.5v22q0 31 22.5 54.5t55.5 23.5q31 0 54.5 -23.5t23.5 -54.5v-974q0 -33 -23.5 -55.5t-54.5 -22.5q-34 0 -56 22t-22 56v20q-40 -39 -110 -62.5t-128 -23.5q-183 0 -289 103.5t-106 283.5zM277.5 1286 q4.5 29 27.5 49q93 86 172 86q54 0 139 -47q6 -3 20.5 -11t22.5 -11.5t20 -9t22.5 -7.5t21.5 -2q37 0 78 43q22 21 54.5 20t51.5 -22q19 -23 15 -54t-27 -54q-87 -80 -170 -80q-40 0 -124 44t-122 44q-34 0 -71 -37q-29 -29 -59.5 -30t-53.5 24q-22 26 -17.5 55zM381 391 q0 -33 5.5 -62.5t21 -60.5t40.5 -52.5t67.5 -35.5t98.5 -14q110 0 173 58.5t63 166.5v332q0 41 -10.5 78t-35.5 71.5t-73.5 55t-116.5 20.5q-110 0 -171.5 -59t-61.5 -166v-332z" />
<glyph unicode="&#xe4;" d="M219 391v332q0 175 107.5 280t287.5 105q59 0 128 -23.5t110 -62.5v22q0 31 22.5 54.5t55.5 23.5q31 0 54.5 -23.5t23.5 -54.5v-974q0 -33 -23.5 -55.5t-54.5 -22.5q-34 0 -56 22t-22 56v20q-40 -39 -110 -62.5t-128 -23.5q-183 0 -289 103.5t-106 283.5zM328 1235v229 h192v-229h-192zM381 391q0 -33 5.5 -62.5t21 -60.5t40.5 -52.5t67.5 -35.5t98.5 -14q110 0 173 58.5t63 166.5v332q0 41 -10.5 78t-35.5 71.5t-73.5 55t-116.5 20.5q-110 0 -171.5 -59t-61.5 -166v-332zM739 1235v229h197v-229h-197z" />
<glyph unicode="&#xe5;" d="M219 391v332q0 175 107.5 280t287.5 105q59 0 128 -23.5t110 -62.5v22q0 31 22.5 54.5t55.5 23.5q31 0 54.5 -23.5t23.5 -54.5v-974q0 -33 -23.5 -55.5t-54.5 -22.5q-34 0 -56 22t-22 56v20q-40 -39 -110 -62.5t-128 -23.5q-183 0 -289 103.5t-106 283.5zM381 391 q0 -33 5.5 -62.5t21 -60.5t40.5 -52.5t67.5 -35.5t98.5 -14q110 0 173 58.5t63 166.5v332q0 41 -10.5 78t-35.5 71.5t-73.5 55t-116.5 20.5q-110 0 -171.5 -59t-61.5 -166v-332zM408 1382q0 92 66.5 159t158.5 67q91 0 157 -66t66 -160q0 -91 -66 -157t-157 -66 q-92 0 -158.5 66t-66.5 157zM549 1382q0 -33 24.5 -57.5t59.5 -24.5q32 0 55 24.5t23 57.5q0 35 -23 59.5t-55 24.5q-35 0 -59.5 -25t-24.5 -59z" />
<glyph unicode="&#xe7;" d="M221 391v332q0 175 106.5 280t286.5 105q173 0 280.5 -97.5t111.5 -260.5q2 -32 -22.5 -56t-59.5 -24q-24 0 -41 8.5t-26.5 25.5t-10.5 41q-2 31 -9 57.5t-23.5 54t-41.5 47t-65.5 32t-92.5 12.5q-110 0 -171.5 -59t-61.5 -166v-332q0 -33 5.5 -62.5t21 -60.5t40.5 -52.5 t67.5 -35.5t98.5 -14q105 0 166.5 53t65.5 148q2 29 25.5 54t54.5 25t54.5 -25.5t25.5 -55.5q-12 -139 -98 -235.5t-222 -119.5q-11 -36 -26 -75t-38.5 -96.5t-29.5 -71.5h-178l116 245q-149 22 -229 120.5t-80 258.5z" />
<glyph unicode="&#xe8;" d="M223 391v332q0 175 106 280t285 105q182 0 287 -103.5t105 -281.5v-201h-625v-131q0 -33 5.5 -62.5t21 -60.5t40.5 -52.5t67.5 -35.5t98.5 -14q101 0 166.5 52.5t65.5 125.5q0 29 24.5 54.5t55.5 25.5q33 0 56.5 -25.5t23.5 -58.5q0 -135 -115.5 -235.5t-276.5 -100.5 q-183 0 -287 103.5t-104 283.5zM381 684h467v39q0 32 -6 62t-22.5 60.5t-42 52.5t-67.5 36t-96 14q-110 0 -171.5 -59t-61.5 -166v-39zM410 1501h188l168 -336h-156z" />
<glyph unicode="&#xe9;" d="M223 391v332q0 175 106 280t285 105q182 0 287 -103.5t105 -281.5v-201h-625v-131q0 -33 5.5 -62.5t21 -60.5t40.5 -52.5t67.5 -35.5t98.5 -14q101 0 166.5 52.5t65.5 125.5q0 29 24.5 54.5t55.5 25.5q33 0 56.5 -25.5t23.5 -58.5q0 -135 -115.5 -235.5t-276.5 -100.5 q-183 0 -287 103.5t-104 283.5zM381 684h467v39q0 32 -6 62t-22.5 60.5t-42 52.5t-67.5 36t-96 14q-110 0 -171.5 -59t-61.5 -166v-39zM434 1163l170 338h191l-205 -338h-156z" />
<glyph unicode="&#xea;" d="M223 391v332q0 175 106 280t285 105q182 0 287 -103.5t105 -281.5v-201h-625v-131q0 -33 5.5 -62.5t21 -60.5t40.5 -52.5t67.5 -35.5t98.5 -14q101 0 166.5 52.5t65.5 125.5q0 29 24.5 54.5t55.5 25.5q33 0 56.5 -25.5t23.5 -58.5q0 -135 -115.5 -235.5t-276.5 -100.5 q-183 0 -287 103.5t-104 283.5zM365 1239q0 28 22 51l184 199h86l185 -195q23 -25 22.5 -54.5t-22.5 -51.5q-19 -21 -53 -20t-58 26l-117 125l-118 -129q-23 -26 -55.5 -27t-53.5 23q-22 25 -22 53zM381 684h467v39q0 32 -6 62t-22.5 60.5t-42 52.5t-67.5 36t-96 14 q-110 0 -171.5 -59t-61.5 -166v-39z" />
<glyph unicode="&#xeb;" d="M223 391v332q0 175 106 280t285 105q182 0 287 -103.5t105 -281.5v-201h-625v-131q0 -33 5.5 -62.5t21 -60.5t40.5 -52.5t67.5 -35.5t98.5 -14q101 0 166.5 52.5t65.5 125.5q0 29 24.5 54.5t55.5 25.5q33 0 56.5 -25.5t23.5 -58.5q0 -135 -115.5 -235.5t-276.5 -100.5 q-183 0 -287 103.5t-104 283.5zM305 1235v229h197v-229h-197zM381 684h467v39q0 32 -6 62t-22.5 60.5t-42 52.5t-67.5 36t-96 14q-110 0 -171.5 -59t-61.5 -166v-39zM717 1237v227h196v-227h-196z" />
<glyph unicode="&#xec;" d="M217 100q0 34 21 56t53 22h239v764h-239q-32 0 -53 21t-21 55t21 55t53 21h401v-916h174q32 0 53 -22t21 -56q0 -33 -20.5 -53t-53.5 -20h-575q-33 0 -53.5 20t-20.5 53zM362 1501h189l168 -336h-156z" />
<glyph unicode="&#xed;" d="M217 100q0 34 21 56t53 22h239v764h-239q-32 0 -53 21t-21 55t21 55t53 21h401v-916h174q32 0 53 -22t21 -56q0 -33 -20.5 -53t-53.5 -20h-575q-33 0 -53.5 20t-20.5 53zM438 1167l164 336h191l-199 -336h-156z" />
<glyph unicode="&#xee;" d="M217 100q0 34 21 56t53 22h239v764h-239q-32 0 -53 21t-21 55t21 55t53 21h401v-916h174q32 0 53 -22t21 -56q0 -33 -20.5 -53t-53.5 -20h-575q-33 0 -53.5 20t-20.5 53zM365 1239q0 28 22 51l184 199h86l185 -195q23 -25 22.5 -54.5t-22.5 -51.5q-19 -21 -53 -20t-58 26 l-117 125l-118 -129q-23 -26 -55.5 -27t-53.5 23q-22 25 -22 53z" />
<glyph unicode="&#xef;" d="M217 100q0 34 21 56t53 22h239v764h-239q-32 0 -53 21t-21 55t21 55t53 21h401v-916h174q32 0 53 -22t21 -56q0 -33 -20.5 -53t-53.5 -20h-575q-33 0 -53.5 20t-20.5 53zM309 1227v227h193v-227h-193zM721 1227v227h192v-227h-192z" />
<glyph unicode="&#xf1;" d="M221 72v970q0 33 22.5 56.5t55.5 23.5q32 0 56 -24t24 -56v-28q39 46 108 70t129 24q181 0 285.5 -103t104.5 -282v-651q0 -35 -23.5 -57.5t-56.5 -22.5q-35 0 -56.5 22.5t-21.5 57.5v651q0 42 -10.5 78.5t-34.5 71t-72 55t-115 20.5q-102 0 -169.5 -62t-67.5 -159v-655 q0 -35 -23.5 -57.5t-56.5 -22.5q-34 0 -56 22.5t-22 57.5zM277.5 1286q4.5 29 27.5 49q93 86 172 86q54 0 139 -47q6 -3 20.5 -11t22.5 -11.5t20 -9t22.5 -7.5t21.5 -2q37 0 78 43q22 21 54.5 20t51.5 -22q19 -23 15 -54t-27 -54q-87 -80 -170 -80q-40 0 -124 44t-122 44 q-34 0 -71 -37q-29 -29 -59.5 -30t-53.5 24q-22 26 -17.5 55z" />
<glyph unicode="&#xf2;" d="M221 391v332q0 175 106.5 280t286.5 105q182 0 288 -103.5t106 -281.5v-332q0 -177 -107 -281t-287 -104q-182 0 -287.5 103t-105.5 282zM381 391q0 -42 10.5 -79t34.5 -72t72 -55.5t116 -20.5q110 0 172 60t62 167v332q0 42 -10.5 78t-34.5 71t-72.5 55.5t-116.5 20.5 q-110 0 -171.5 -59t-61.5 -166v-332zM416 1501h188l168 -336h-156z" />
<glyph unicode="&#xf3;" d="M221 391v332q0 175 106.5 280t286.5 105q182 0 287 -103.5t105 -281.5v-332q0 -177 -106 -281t-286 -104q-183 0 -288 102.5t-105 282.5zM381 391q0 -43 10 -79.5t33.5 -71.5t72 -55.5t117.5 -20.5q110 0 172 60t62 167v332q0 42 -10.5 78t-34.5 71t-72.5 55.5 t-116.5 20.5q-110 0 -171.5 -59t-61.5 -166v-332zM436 1163l170 338h191l-205 -338h-156z" />
<glyph unicode="&#xf4;" d="M221 391v332q0 175 106.5 280t284.5 105q183 0 288.5 -103t105.5 -282v-332q0 -177 -107 -281t-287 -104q-182 0 -286.5 102.5t-104.5 282.5zM365 1239q0 28 22 51l184 199h86l185 -195q23 -25 22.5 -54.5t-22.5 -51.5q-19 -21 -53 -20t-58 26l-117 125l-118 -129 q-23 -26 -55.5 -27t-53.5 23q-22 25 -22 53zM379 391q0 -42 10.5 -79t34.5 -72t72 -55.5t116 -20.5q110 0 172 60t62 167v332q0 42 -10.5 78t-34.5 71t-72.5 55.5t-116.5 20.5q-109 0 -171 -59t-62 -166v-332z" />
<glyph unicode="&#xf5;" d="M221 391v332q0 175 106.5 280t284.5 105q183 0 288.5 -103t105.5 -282v-332q0 -177 -107 -281t-287 -104q-182 0 -286.5 102.5t-104.5 282.5zM277.5 1286q4.5 29 27.5 49q93 86 172 86q54 0 139 -47q6 -3 20.5 -11t22.5 -11.5t20 -9t22.5 -7.5t21.5 -2q37 0 78 43 q22 21 54.5 20t51.5 -22q19 -23 15 -54t-27 -54q-87 -80 -170 -80q-40 0 -124 44t-122 44q-34 0 -71 -37q-29 -29 -59.5 -30t-53.5 24q-22 26 -17.5 55zM379 391q0 -42 10.5 -79t34.5 -72t72 -55.5t116 -20.5q110 0 172 60t62 167v332q0 42 -10.5 78t-34.5 71t-72.5 55.5 t-116.5 20.5q-109 0 -171 -59t-62 -166v-332z" />
<glyph unicode="&#xf6;" d="M221 391v332q0 175 106.5 280t286.5 105q182 0 287 -103.5t105 -281.5v-332q0 -177 -106 -281t-286 -104q-183 0 -288 102.5t-105 282.5zM307 1235v229h197v-229h-197zM381 391q0 -43 10 -79.5t33.5 -71.5t72 -55.5t117.5 -20.5q110 0 172 60t62 167v332q0 42 -10.5 78 t-34.5 71t-72.5 55.5t-116.5 20.5q-110 0 -171.5 -59t-61.5 -166v-332zM719 1237v227h196v-227h-196z" />
<glyph unicode="&#xf7;" d="M215 561q0 33 19.5 52.5t52.5 19.5h653q33 0 53.5 -19.5t20.5 -52.5q0 -32 -20.5 -50.5t-53.5 -18.5h-653q-33 0 -52.5 18.5t-19.5 50.5zM518 160v209h191v-209h-191zM518 756v209h191v-209h-191z" />
<glyph unicode="&#xf8;" d="M223 391v332q0 175 106.5 280t286.5 105q88 0 164 -29l76 164q13 30 45.5 42t59.5 -1q28 -14 38.5 -44t-2.5 -58l-90 -185q101 -106 101 -274v-332q0 -177 -106.5 -281t-285.5 -104q-90 0 -155 23l-88 -197q-14 -33 -47.5 -45.5t-59.5 0.5q-29 14 -39.5 45.5t4.5 63.5 l103 208q-48 52 -79.5 129t-31.5 158zM383 391q0 -76 23 -121l307 664q-47 14 -97 14q-110 0 -171.5 -59t-61.5 -166v-332zM524 174q42 -10 92 -10q109 0 170.5 60t61.5 167v332q0 72 -19 102z" />
<glyph unicode="&#xf9;" d="M221 391v651q0 33 22.5 56.5t55.5 23.5q32 0 56 -24t24 -56v-651q0 -42 10.5 -78.5t34.5 -71.5t72 -55t116 -20q102 0 169 55.5t67 147.5v673q0 33 22 56.5t56 23.5q32 0 56 -24t24 -56v-970q0 -35 -23.5 -57.5t-56.5 -22.5q-35 0 -56.5 22.5t-21.5 57.5v8 q-53 -32 -118.5 -53t-117.5 -21q-183 0 -287 102.5t-104 282.5zM410 1501h192l162 -336h-154z" />
<glyph unicode="&#xfa;" d="M221 391v651q0 33 22.5 56.5t55.5 23.5q32 0 56 -24t24 -56v-651q0 -42 10.5 -78.5t34.5 -71.5t72 -55t116 -20q102 0 169 55.5t67 147.5v673q0 33 22 56.5t56 23.5q32 0 56 -24t24 -56v-970q0 -35 -23.5 -57.5t-56.5 -22.5q-35 0 -56.5 22.5t-21.5 57.5v8 q-53 -32 -118.5 -53t-117.5 -21q-183 0 -287 102.5t-104 282.5zM406 1163l161 338h195l-201 -338h-155z" />
<glyph unicode="&#xfb;" d="M221 391v651q0 33 22.5 56.5t55.5 23.5q32 0 56 -24t24 -56v-651q0 -42 10.5 -78.5t34.5 -71.5t72 -55t116 -20q102 0 169 55.5t67 147.5v673q0 33 22 56.5t56 23.5q32 0 56 -24t24 -56v-970q0 -35 -23.5 -57.5t-56.5 -22.5q-35 0 -56.5 22.5t-21.5 57.5v8 q-53 -32 -118.5 -53t-117.5 -21q-183 0 -287 102.5t-104 282.5zM365 1239q0 28 22 51l184 199h86l185 -195q23 -25 22.5 -54.5t-22.5 -51.5q-19 -21 -53 -20t-58 26l-117 125l-118 -129q-23 -26 -55.5 -27t-53.5 23q-22 25 -22 53z" />
<glyph unicode="&#xfc;" d="M221 391v651q0 33 22.5 56.5t55.5 23.5q32 0 56 -24t24 -56v-651q0 -42 10.5 -78.5t34.5 -71.5t72 -55t116 -20q102 0 169 55.5t67 147.5v673q0 33 22 56.5t56 23.5q32 0 56 -24t24 -56v-970q0 -35 -23.5 -57.5t-56.5 -22.5q-35 0 -56.5 22.5t-21.5 57.5v8 q-53 -32 -118.5 -53t-117.5 -21q-183 0 -287 102.5t-104 282.5zM295 1227v227h197v-227h-197zM709 1227v227h194v-227h-194z" />
<glyph unicode="&#xff;" d="M250 1022q-7 32 11 61t46 35q36 9 64.5 -9.5t36.5 -51.5l196 -871h12l203 871q6 30 36 49t63 12q32 -6 49.5 -35.5t9.5 -60.5l-291 -1200q-30 -125 -108 -181.5t-203 -56.5h-15q-34 0 -56.5 23t-22.5 55q0 33 22.5 57.5t56.5 24.5h23q56 0 100.5 25.5t55.5 76.5l41 177 h-93zM311 1221v227h197v-227h-197zM723 1221v227h197v-227h-197z" />
<glyph unicode="&#x178;" d="M199 1358q-12 31 0 62.5t41 43.5q32 14 63.5 1t44.5 -46l266 -661l263 661q12 31 44.5 44t61.5 1q34 -15 45.5 -43.5t-2.5 -62.5l-336 -819v-469q0 -35 -22 -57.5t-56 -22.5q-35 0 -55 22t-20 58v469zM297 1546v228h197v-228h-197zM711 1546v228h194v-228h-194z" />
<glyph unicode="&#x2c6;" d="M365 1239q0 28 22 51l184 199h86l185 -195q23 -25 22.5 -54.5t-22.5 -51.5q-19 -21 -53 -20t-58 26l-117 125l-118 -129q-23 -26 -55.5 -27t-53.5 23q-22 25 -22 53z" />
<glyph unicode="&#x2dc;" d="M308.5 1288q4.5 29 27.5 49q93 86 172 86q54 0 139 -47q6 -3 20.5 -11t22.5 -11.5t20 -9t22.5 -7.5t21.5 -2q36 0 77 43q22 21 55 20t52 -22q19 -23 15 -54t-27 -54q-87 -80 -170 -80q-37 0 -138 49q-76 39 -108 39q-35 0 -72 -37q-29 -29 -59 -30t-53 24 q-22 26 -17.5 55z" />
<glyph unicode="&#x2000;" horiz-adv-x="977" />
<glyph unicode="&#x2001;" horiz-adv-x="1954" />
<glyph unicode="&#x2002;" horiz-adv-x="977" />
<glyph unicode="&#x2003;" horiz-adv-x="1954" />
<glyph unicode="&#x2004;" horiz-adv-x="651" />
<glyph unicode="&#x2005;" horiz-adv-x="488" />
<glyph unicode="&#x2006;" horiz-adv-x="325" />
<glyph unicode="&#x2007;" horiz-adv-x="325" />
<glyph unicode="&#x2008;" horiz-adv-x="244" />
<glyph unicode="&#x2009;" horiz-adv-x="390" />
<glyph unicode="&#x200a;" horiz-adv-x="108" />
<glyph unicode="&#x2010;" d="M297 563q0 34 22 55t56 21h477q34 0 56 -21t22 -55t-22 -55t-56 -21h-477q-34 0 -56 21t-22 55z" />
<glyph unicode="&#x2011;" d="M297 563q0 34 22 55t56 21h477q34 0 56 -21t22 -55t-22 -55t-56 -21h-477q-34 0 -56 21t-22 55z" />
<glyph unicode="&#x2012;" d="M297 563q0 34 22 55t56 21h477q34 0 56 -21t22 -55t-22 -55t-56 -21h-477q-34 0 -56 21t-22 55z" />
<glyph unicode="&#x2013;" d="M215 553q0 33 19.5 52.5t52.5 19.5h653q33 0 53.5 -19.5t20.5 -52.5q0 -32 -20.5 -51t-53.5 -19h-653q-32 0 -52 19t-20 51z" />
<glyph unicode="&#x2014;" d="M20 553q0 34 18 53t52 19h1047q33 0 52 -19.5t19 -52.5q0 -32 -19.5 -51t-51.5 -19h-1047q-33 0 -51.5 18.5t-18.5 51.5z" />
<glyph unicode="&#x2018;" d="M399 1112l291 463h123l-174 -463h-240z" />
<glyph unicode="&#x2019;" d="M416 1112l172 463h241l-292 -463h-121z" />
<glyph unicode="&#x201a;" d="M520 -160v387h189v-190z" />
<glyph unicode="&#x201c;" d="M262 1176l293 473h137l-180 -473h-250zM520 1176l293 473h137l-180 -473h-250z" />
<glyph unicode="&#x201d;" d="M279 1176l180 473h250l-295 -473h-135zM537 1176l180 473h250l-295 -473h-135z" />
<glyph unicode="&#x201e;" d="M279 -221l180 471h250l-295 -471h-135zM537 -221l180 471h250l-295 -471h-135z" />
<glyph unicode="&#x2022;" d="M387 725q0 93 66 160t159 67q92 0 160 -67.5t68 -159.5t-68 -159.5t-160 -67.5q-93 0 -159 67t-66 160z" />
<glyph unicode="&#x2026;" d="M92 25v221h201v-221h-201zM514 25v221h199v-221h-199zM936 25v221h201v-219z" />
<glyph unicode="&#x202f;" horiz-adv-x="390" />
<glyph unicode="&#x2039;" d="M389 559l295 295q21 21 54 22t57 -22q22 -23 22 -57t-22 -54l-187 -184l187 -186q22 -22 22 -55t-22 -56q-22 -22 -55.5 -21t-55.5 23z" />
<glyph unicode="&#x203a;" d="M396 318q0 33 22 55l186 186l-186 184q-22 20 -22 54t22 57q24 23 56.5 22t53.5 -22l295 -295l-295 -295q-22 -22 -55 -23t-55 21q-22 23 -22 56z" />
<glyph unicode="&#x205f;" horiz-adv-x="488" />
<glyph unicode="&#x20ac;" d="M106 786l52 152h137v143q0 43 9 88.5t35 99.5t67 95.5t112 69.5t162 28t162 -28t111.5 -69.5t66.5 -96.5t34.5 -101.5t8.5 -91.5q0 -32 -24.5 -55t-53.5 -23q-34 0 -55 22t-21 56q0 56 -16.5 99t-40.5 67t-57 39.5t-60 20t-55 4.5q-24 0 -50.5 -5t-59.5 -20t-58 -39.5 t-42 -67.5t-17 -98v-135h432l-49 -152h-383v-122h372l-49 -150h-323v-123q0 -56 16.5 -99t41 -66.5t57 -38t59 -19t53.5 -4.5q28 0 55 4.5t60 19t57 38.5t40.5 67t16.5 100q0 29 22 53.5t54 24.5q28 0 53 -25t25 -53q0 -46 -9 -93.5t-35 -102.5t-67.5 -96t-113 -69 t-164.5 -28q-90 0 -160 27.5t-110 69t-66 96t-34.5 101t-8.5 91.5v123h-186l51 150h135v122h-189z" />
<glyph unicode="&#x2122;" d="M61 1305v141h514v-139h-186v-650h-141v648h-187zM608 649v797h180l99 -283l98 283h180v-797h-141v473l-80 -225h-117l-77 227v-475h-142z" />
<glyph unicode="&#xe000;" horiz-adv-x="1105" d="M0 0v1106h1106v-1106h-1106z" />
</font>
</defs>
</svg>
